<svg width="34" height="49" viewBox="0 0 34 49" fill="none" xmlns="http://www.w3.org/2000/svg">
<path d="M17.0922 37.5977C26.3103 37.5977 33.7831 32.4043 33.7831 25.998C33.7831 19.5916 26.3103 14.3982 17.0922 14.3982C7.87413 14.3982 0.401367 19.5916 0.401367 25.998C0.401367 32.4043 7.87413 37.5977 17.0922 37.5977Z" fill="#C2BACE"/>
<path d="M28.9465 11.7398C28.9465 18.023 23.6248 23.3396 16.8517 23.3396C10.0786 23.3396 4.75684 18.2647 4.75684 11.7398C4.75684 5.21499 10.0786 0.140137 16.8517 0.140137C23.3829 0.140137 28.9465 5.21499 28.9465 11.7398Z" fill="#C2BACE"/>
<path d="M30.638 19.7146C30.638 19.7146 21.9297 24.0646 18.0594 25.9979L17.5756 14.8814C18.0594 14.3981 24.3487 8.83989 24.3487 8.83989C24.3487 8.83989 19.5108 11.9815 17.5756 13.4315L17.0918 0.623413L16.8499 8.83989C15.3985 7.87324 11.5282 5.69828 11.5282 5.69828C11.5282 5.69828 15.6404 9.32322 16.8499 10.2899L16.608 18.9897C13.7053 17.5397 6.69025 13.9148 6.69025 13.9148C6.69025 13.9148 14.9147 20.6813 16.608 21.8896L16.3661 30.3478C12.2539 28.1728 3.30371 23.8229 3.30371 23.8229C3.30371 23.8229 13.4633 31.5561 16.1242 33.4893L15.6404 48.714H19.2688L18.5432 29.3811C20.4783 26.9645 30.638 19.7146 30.638 19.7146Z" fill="#B4ACBF"/>
</svg>
