<svg width="34" height="52" viewBox="0 0 34 52" fill="none" xmlns="http://www.w3.org/2000/svg">
<path d="M31.1054 28.9975C31.1054 34.3141 24.8161 38.664 17.3173 38.664C9.57665 38.664 3.5293 34.3141 3.5293 28.9975C3.5293 23.681 9.81855 19.3311 17.3173 19.3311C25.058 19.3311 31.1054 23.681 31.1054 28.9975Z" fill="#BAB1C5"/>
<path d="M33.7661 18.8475C33.7661 25.614 26.2673 30.9306 17.3171 30.9306C8.12503 30.9306 0.868164 25.614 0.868164 18.8475C0.868164 12.081 8.36693 6.7644 17.3171 6.7644C26.5092 6.7644 33.7661 12.3226 33.7661 18.8475Z" fill="#BAB1C5"/>
<path d="M26.9924 7.97304C26.9924 11.8396 22.6382 14.9812 17.3165 14.9812C11.9948 14.9812 7.64062 11.8396 7.64062 7.97304C7.64062 4.10646 11.9948 0.964844 17.3165 0.964844C22.6382 0.964844 26.9924 4.10646 26.9924 7.97304Z" fill="#BAB1C5"/>
<path d="M5.94824 23.9225C5.94824 23.9225 12.2375 27.0641 16.1079 28.9974L16.5917 17.8809C16.1079 17.3976 9.81853 11.8394 9.81853 11.8394C9.81853 11.8394 14.6565 14.981 16.5917 16.431L17.0754 3.62292L17.3173 11.8394C18.7687 10.8727 22.6391 8.69779 22.6391 8.69779C22.6391 8.69779 18.5268 12.3227 17.3173 13.2894L17.5592 21.9892C20.462 20.5392 27.477 16.9143 27.477 16.9143C27.477 16.9143 19.2525 23.6808 17.5592 24.8891L17.8012 33.3473C21.9134 31.1723 28.2027 28.0307 28.2027 28.0307C28.2027 28.0307 20.7039 34.3139 18.0431 36.2472L18.5268 51.4718H15.1403L15.8659 32.139C13.447 29.964 5.94824 23.9225 5.94824 23.9225Z" fill="#B4ACBF"/>
</svg>
