<svg width="34" height="52" viewBox="0 0 34 52" fill="none" xmlns="http://www.w3.org/2000/svg">
<path d="M30.3869 28.9976C30.3869 34.3142 24.0975 38.6641 16.5987 38.6641C9.0999 38.6641 2.81055 34.3142 2.81055 28.9976C2.81055 23.6811 9.0999 19.3312 16.5987 19.3312C24.0975 19.3312 30.3869 23.6811 30.3869 28.9976Z" fill="#BAB1C5"/>
<path d="M33.0482 18.8476C33.0482 25.6141 25.5494 30.9307 16.5993 30.9307C7.64914 30.9307 0.150391 25.6141 0.150391 18.8476C0.150391 12.0811 7.64914 6.76453 16.5993 6.76453C25.5494 6.76453 33.0482 12.3227 33.0482 18.8476Z" fill="#BAB1C5"/>
<path d="M26.0343 7.97316C26.0343 11.8397 21.6802 14.9813 16.3585 14.9813C11.0367 14.9813 6.68262 11.8397 6.68262 7.97316C6.68262 4.10658 11.0367 0.964966 16.3585 0.964966C21.6802 0.964966 26.0343 4.10658 26.0343 7.97316Z" fill="#BAB1C5"/>
<path d="M4.98828 23.9225C4.98828 23.9225 11.2775 27.0641 15.1479 28.9974L15.6317 17.8809C15.1479 17.3976 8.85855 11.8394 8.85855 11.8394C8.85855 11.8394 13.6965 14.981 15.6317 16.431L16.1154 3.62292L16.3573 11.8394C17.8087 10.8727 21.6791 8.69779 21.6791 8.69779C21.6791 8.69779 17.5668 12.3227 16.3573 13.2894L16.5992 21.9892C19.502 20.5392 26.517 16.9143 26.517 16.9143C26.517 16.9143 18.2925 23.6808 16.5992 24.8891L16.8412 33.3473C20.9534 31.1723 27.2426 28.0307 27.2426 28.0307C27.2426 28.0307 19.7439 34.3139 17.0831 36.2472L17.5668 51.4718H13.9384L14.6641 32.139C12.7289 29.964 4.98828 23.9225 4.98828 23.9225Z" fill="#B4ACBF"/>
</svg>
