<svg width="33" height="60" viewBox="0 0 33 60" fill="none" xmlns="http://www.w3.org/2000/svg">
<path d="M25.8099 8.48231C25.8099 13.0739 21.6976 16.6988 16.6178 16.6988C11.538 16.6988 7.42578 13.0739 7.42578 8.48231C7.42578 3.89076 11.538 0.265869 16.6178 0.265869C21.6976 0.265869 25.8099 3.89076 25.8099 8.48231Z" fill="#CFC6DC"/>
<path d="M32.3399 19.8404C32.3399 26.1236 25.325 31.1985 16.6168 31.1985C7.90852 31.1985 0.893555 26.1236 0.893555 19.8404C0.893555 13.5572 7.90852 8.4823 16.6168 8.4823C25.325 8.4823 32.3399 13.5572 32.3399 19.8404Z" fill="#CFC6DC"/>
<path d="M3.7959 16.4572C3.7959 16.4572 12.9879 19.5988 15.8907 20.3238L16.3745 5.09912L16.6164 13.7989C18.5515 12.5906 24.1152 9.20736 24.1152 9.20736C24.1152 9.20736 18.3096 14.5239 16.6164 15.9739L16.8583 24.1904C20.4868 22.4987 29.4368 17.9071 29.4368 17.9071C29.4368 17.9071 19.2772 24.9153 17.1002 26.607L18.3097 59.2312H14.1974L15.6489 22.7404C14.9232 22.257 3.7959 16.4572 3.7959 16.4572Z" fill="#B4ACBF"/>
</svg>
