<svg width="35" height="49" viewBox="0 0 35 49" fill="none" xmlns="http://www.w3.org/2000/svg">
<path d="M17.6851 37.5975C26.9032 37.5975 34.376 32.4041 34.376 25.9977C34.376 19.5914 26.9032 14.3979 17.6851 14.3979C8.46691 14.3979 0.994141 19.5914 0.994141 25.9977C0.994141 32.4041 8.46691 37.5975 17.6851 37.5975Z" fill="#C2BACE"/>
<path d="M29.5392 11.7398C29.5392 18.023 24.2175 23.3396 17.4444 23.3396C10.6713 23.3396 5.34961 18.2647 5.34961 11.7398C5.34961 5.45665 10.6713 0.140137 17.4444 0.140137C23.9756 0.140137 29.5392 5.21499 29.5392 11.7398Z" fill="#C2BACE"/>
<path d="M31.2309 19.7146C31.2309 19.7146 22.5226 24.0646 18.6522 25.9979L18.1685 14.8814C18.6523 14.3981 24.9416 8.83989 24.9416 8.83989C24.9416 8.83989 20.1036 11.9815 18.1685 13.4315L17.6846 0.623413L17.4427 8.83989C15.9913 7.87324 12.121 5.69828 12.121 5.69828C12.121 5.69828 16.2332 9.32322 17.4427 10.2899L17.2008 18.9897C14.2981 17.5397 7.2831 13.9148 7.2831 13.9148C7.2831 13.9148 15.5075 20.6813 17.2008 21.8896L16.959 30.3478C12.8467 28.1728 3.89648 23.8229 3.89648 23.8229C3.89648 23.8229 14.0562 31.5561 16.7171 33.4893L16.2332 48.714H19.8617L19.136 29.3811C21.0712 26.9645 31.2309 19.7146 31.2309 19.7146Z" fill="#B4ACBF"/>
</svg>
