<svg width="34" height="52" viewBox="0 0 34 52" fill="none" xmlns="http://www.w3.org/2000/svg">
<path d="M31.0655 28.9976C31.0655 34.3142 24.7761 38.6641 17.2773 38.6641C9.53663 38.6641 3.48926 34.3142 3.48926 28.9976C3.48926 23.6811 9.77852 19.3312 17.2773 19.3312C24.7761 19.3312 31.0655 23.6811 31.0655 28.9976Z" fill="#BAB1C5"/>
<path d="M33.726 18.8476C33.726 25.6141 26.2272 30.9307 17.277 30.9307C8.08498 30.9307 0.828125 25.6141 0.828125 18.8476C0.828125 12.0811 8.32687 6.76453 17.277 6.76453C26.2272 6.76453 33.726 12.3227 33.726 18.8476Z" fill="#BAB1C5"/>
<path d="M26.7119 7.97316C26.7119 11.8397 22.3578 14.9813 17.0361 14.9813C11.7144 14.9813 7.36035 11.8397 7.36035 7.97316C7.36035 4.10658 11.7144 0.964966 17.0361 0.964966C22.3578 0.964966 26.7119 4.10658 26.7119 7.97316Z" fill="#BAB1C5"/>
<path d="M5.66602 23.9226C5.66602 23.9226 11.9553 27.0642 15.8257 28.9975L16.3095 17.881C15.8257 17.3977 9.53639 11.8395 9.53639 11.8395C9.53639 11.8395 14.3743 14.9811 16.3095 16.4311L16.7933 3.62305L17.0351 11.8395C18.4865 10.8729 22.3569 8.69791 22.3569 8.69791C22.3569 8.69791 18.2446 12.3228 17.0351 13.2895L17.2771 21.9893C20.1798 20.5393 27.1949 16.9144 27.1949 16.9144C27.1949 16.9144 18.9703 23.6809 17.2771 24.8892L17.519 33.3474C21.6312 31.1724 27.9205 28.0308 27.9205 28.0308C27.9205 28.0308 20.4217 34.314 17.7609 36.2473L18.2446 51.472H14.6162L15.3419 32.1391C13.4067 29.9641 5.66602 23.9226 5.66602 23.9226Z" fill="#B4ACBF"/>
</svg>
