<svg width="33" height="52" viewBox="0 0 33 52" fill="none" xmlns="http://www.w3.org/2000/svg">
<path d="M30.2901 28.9975C30.2901 34.3141 24.0008 38.664 16.502 38.664C8.76127 38.664 2.71387 34.3141 2.71387 28.9975C2.71387 23.681 9.00317 19.3311 16.502 19.3311C24.0008 19.3311 30.2901 23.681 30.2901 28.9975Z" fill="#BAB1C5"/>
<path d="M32.9507 18.8475C32.9507 25.614 25.4519 30.9306 16.5017 30.9306C7.30964 30.9306 0.0527344 25.614 0.0527344 18.8475C0.0527344 12.081 7.55154 6.7644 16.5017 6.7644C25.6938 6.7644 32.9507 12.3226 32.9507 18.8475Z" fill="#BAB1C5"/>
<path d="M26.177 7.97304C26.177 11.8396 21.8228 14.9812 16.5011 14.9812C11.1793 14.9812 6.8252 11.8396 6.8252 7.97304C6.8252 4.10646 11.1793 0.964844 16.5011 0.964844C21.8228 0.964844 26.177 4.10646 26.177 7.97304Z" fill="#BAB1C5"/>
<path d="M5.13281 23.9225C5.13281 23.9225 11.4221 27.0641 15.2925 28.9974L15.7762 17.8809C15.2924 17.3976 9.00317 11.8394 9.00317 11.8394C9.00317 11.8394 13.8411 14.981 15.7762 16.431L16.2601 3.62292L16.5019 11.8394C17.9533 10.8727 21.8237 8.69779 21.8237 8.69779C21.8237 8.69779 17.7114 12.3227 16.5019 13.2894L16.7439 21.9892C19.6466 20.5392 26.6616 16.9143 26.6616 16.9143C26.6616 16.9143 18.4371 23.6808 16.7439 24.8891L16.9857 33.3473C21.098 31.1723 27.3873 28.0307 27.3873 28.0307C27.3873 28.0307 19.8885 34.3139 17.2276 36.2472L17.7114 51.4718H14.083L14.8087 32.139C12.6316 29.964 5.13281 23.9225 5.13281 23.9225Z" fill="#B4ACBF"/>
</svg>
