<svg width="34" height="52" viewBox="0 0 34 52" fill="none" xmlns="http://www.w3.org/2000/svg">
<path d="M30.5019 28.9982C30.5019 34.3148 24.2127 38.6647 16.7139 38.6647C8.97321 38.6647 2.92578 34.3148 2.92578 28.9982C2.92578 23.6817 9.2151 19.3318 16.7139 19.3318C24.4545 19.3318 30.5019 23.6817 30.5019 28.9982Z" fill="#BAB1C5"/>
<path d="M33.4049 18.8482C33.4049 25.6147 25.9061 30.9313 16.9559 30.9313C7.76374 30.9313 0.506836 25.6147 0.506836 18.8482C0.506836 12.0817 8.00564 6.76514 16.9559 6.76514C25.9061 6.76514 33.4049 12.3234 33.4049 18.8482Z" fill="#BAB1C5"/>
<path d="M26.3908 7.97341C26.3908 11.84 22.0366 14.9816 16.7149 14.9816C11.3932 14.9816 7.03906 11.84 7.03906 7.97341C7.03906 4.10683 11.3932 0.96521 16.7149 0.96521C22.0366 0.96521 26.3908 4.10683 26.3908 7.97341Z" fill="#BAB1C5"/>
<path d="M5.34473 23.9228C5.34473 23.9228 11.634 27.0644 15.5043 28.9977L15.9881 17.8813C15.5043 17.398 9.21506 11.8398 9.21506 11.8398C9.21506 11.8398 14.0529 14.9814 15.9881 16.4313L16.4719 3.62329L16.7138 11.8398C18.1652 10.8731 22.0355 8.69815 22.0355 8.69815C22.0355 8.69815 17.9233 12.3231 16.7138 13.2897L16.9557 21.9895C19.8584 20.5396 26.8734 16.9147 26.8734 16.9147C26.8734 16.9147 18.6489 23.6812 16.9557 24.8895L17.1976 33.3476C21.3098 31.1727 27.5991 28.031 27.5991 28.031C27.5991 28.031 20.1003 34.3143 17.4395 36.2476L17.9233 51.4722H14.2949L15.0205 32.1393C12.8435 29.9644 5.34473 23.9228 5.34473 23.9228Z" fill="#B4ACBF"/>
</svg>
