<svg width="34" height="52" viewBox="0 0 34 52" fill="none" xmlns="http://www.w3.org/2000/svg">
<path d="M30.7803 28.9975C30.7803 34.3141 24.491 38.664 16.9922 38.664C9.25147 38.664 3.2041 34.3141 3.2041 28.9975C3.2041 23.681 9.49337 19.3311 16.9922 19.3311C24.491 19.3311 30.7803 23.681 30.7803 28.9975Z" fill="#BAB1C5"/>
<path d="M33.4409 18.8475C33.4409 25.614 25.9421 30.9306 16.9919 30.9306C7.79984 30.9306 0.542969 25.614 0.542969 18.8475C0.542969 12.081 8.04173 6.7644 16.9919 6.7644C26.184 6.7644 33.4409 12.3226 33.4409 18.8475Z" fill="#BAB1C5"/>
<path d="M26.6672 7.97304C26.6672 11.8396 22.313 14.9812 16.9913 14.9812C11.6696 14.9812 7.31543 11.8396 7.31543 7.97304C7.31543 4.10646 11.6696 0.964844 16.9913 0.964844C22.313 0.964844 26.6672 4.10646 26.6672 7.97304Z" fill="#BAB1C5"/>
<path d="M5.38086 23.9225C5.38086 23.9225 11.6702 27.0641 15.5405 28.9974L16.0243 17.8809C15.5405 17.3976 9.25122 11.8394 9.25122 11.8394C9.25122 11.8394 14.0891 14.981 16.0243 16.431L16.5081 3.62292L16.75 11.8394C18.2014 10.8727 22.0717 8.69779 22.0717 8.69779C22.0717 8.69779 17.9595 12.3227 16.75 13.2894L16.9919 21.9892C19.8946 20.5392 26.9096 16.9143 26.9096 16.9143C26.9096 16.9143 18.6851 23.6808 16.9919 24.8891L17.2338 33.3473C21.346 31.1723 27.6354 28.0307 27.6354 28.0307C27.6354 28.0307 20.1365 34.3139 17.4757 36.2472L17.9595 51.4718H14.3311L15.0567 32.139C13.1215 29.964 5.38086 23.9225 5.38086 23.9225Z" fill="#B4ACBF"/>
</svg>
