<svg width="28" height="54" viewBox="0 0 28 54" fill="none" xmlns="http://www.w3.org/2000/svg">
<path d="M27.8027 15.29C27.8027 23.2648 21.5134 29.7897 14.0147 29.7897C6.27399 29.7897 0.226562 23.2648 0.226562 15.29C0.226562 7.31515 6.51589 0.790283 14.0147 0.790283C21.7553 0.790283 27.8027 7.31515 27.8027 15.29Z" fill="#BAB1C5"/>
<path d="M25.6241 15.2902C25.6241 15.2902 17.3996 17.9485 14.9806 18.9151L14.4968 5.38208L14.255 13.1152C12.5617 12.1486 7.48179 9.007 7.48179 9.007C7.48179 9.007 12.5617 13.5986 14.255 15.0485L14.0131 22.2984C10.8684 20.6067 2.88574 16.7402 2.88574 16.7402C2.88574 16.7402 11.836 23.0234 14.0131 24.4733L12.8036 53.4727H16.432L15.2225 20.8484C15.7063 20.3651 25.6241 15.2902 25.6241 15.2902Z" fill="#B4ACBF"/>
</svg>
