<svg width="28" height="54" viewBox="0 0 28 54" fill="none" xmlns="http://www.w3.org/2000/svg">
<path d="M27.9397 15.29C27.9397 23.2648 21.6503 29.7897 14.1515 29.7897C6.41074 29.7897 0.363281 23.2648 0.363281 15.29C0.363281 7.31515 6.65264 0.790283 14.1515 0.790283C21.6503 0.790283 27.9397 7.31515 27.9397 15.29Z" fill="#BAB1C5"/>
<path d="M25.5225 15.2902C25.5225 15.2902 17.298 17.9485 14.8791 18.9151L14.3952 5.38208L14.1533 13.1152C12.4601 12.1486 7.38025 9.007 7.38025 9.007C7.38025 9.007 12.4601 13.5986 14.1533 15.0485L13.9114 22.2984C10.7668 20.6067 2.78418 16.7402 2.78418 16.7402C2.78418 16.7402 11.7343 23.0234 13.9114 24.4733L12.7019 53.4727H16.3304L15.1209 20.8484C15.6047 20.3651 25.5225 15.2902 25.5225 15.2902Z" fill="#B4ACBF"/>
</svg>
