<svg width="34" height="52" viewBox="0 0 34 52" fill="none" xmlns="http://www.w3.org/2000/svg">
<path d="M30.7911 28.9979C30.7911 34.3144 24.5017 38.6643 17.0029 38.6643C9.26226 38.6643 3.21484 34.3144 3.21484 28.9979C3.21484 23.6813 9.50415 19.3314 17.0029 19.3314C24.5017 19.3314 30.7911 23.6813 30.7911 28.9979Z" fill="#BAB1C5"/>
<path d="M33.4526 18.8479C33.4526 25.6144 25.9538 30.9309 17.0036 30.9309C7.81158 30.9309 0.554688 25.6144 0.554688 18.8479C0.554688 12.0813 8.05348 6.76477 17.0036 6.76477C26.1957 6.76477 33.4526 12.323 33.4526 18.8479Z" fill="#BAB1C5"/>
<path d="M26.6779 7.97304C26.6779 11.8396 22.3238 14.9812 17.002 14.9812C11.6803 14.9812 7.32617 11.8396 7.32617 7.97304C7.32617 4.10646 11.6803 0.964844 17.002 0.964844C22.3238 0.964844 26.6779 4.10646 26.6779 7.97304Z" fill="#BAB1C5"/>
<path d="M5.63477 23.9225C5.63477 23.9225 11.9241 27.0641 15.7944 28.9974L16.2782 17.8809C15.7944 17.3976 9.50511 11.8394 9.50511 11.8394C9.50511 11.8394 14.343 14.981 16.2782 16.431L16.762 3.62292L17.0039 11.8394C18.4553 10.8727 22.3256 8.69779 22.3256 8.69779C22.3256 8.69779 18.2134 12.3227 17.0039 13.2894L17.2458 21.9892C20.1486 20.5392 27.1635 16.9143 27.1635 16.9143C27.1635 16.9143 18.9391 23.6808 17.2458 24.8891L17.4877 33.3473C21.5999 31.1723 27.8892 28.0307 27.8892 28.0307C27.8892 28.0307 20.3904 34.3139 17.7296 36.2472L18.2134 51.4718H14.8268L15.5525 32.139C13.1336 29.964 5.63477 23.9225 5.63477 23.9225Z" fill="#B4ACBF"/>
</svg>
