<svg width="38" height="70" viewBox="0 0 38 70" fill="none" xmlns="http://www.w3.org/2000/svg">
<path d="M29.6984 10.299C29.6984 15.6156 24.8605 19.9655 18.8131 19.9655C12.7657 19.9655 7.92773 15.6156 7.92773 10.299C7.92773 4.98248 12.7657 0.632568 18.8131 0.632568C24.8605 0.632568 29.6984 4.98248 29.6984 10.299Z" fill="#CFC6DC"/>
<path d="M37.4402 23.5902C37.4402 30.84 29.2157 36.8815 19.056 36.8815C8.89636 36.8815 0.671875 30.84 0.671875 23.5902C0.671875 16.3404 8.89636 10.2988 19.056 10.2988C29.2157 10.2988 37.4402 16.3404 37.4402 23.5902Z" fill="#CFC6DC"/>
<path d="M3.57422 19.7239C3.57422 19.7239 14.4596 23.3488 17.8461 24.3154L18.5718 6.4325L19.0556 16.5823C21.2327 15.1323 28.0058 11.2657 28.0058 11.2657C28.0058 11.2657 21.2327 17.5489 19.2975 19.2405L19.7813 28.907C23.8935 26.732 34.537 21.4155 34.537 21.4155C34.537 21.4155 22.684 29.632 19.7813 31.5653L21.2327 69.9894H16.3947L18.088 26.9737C16.8785 26.4904 3.57422 19.7239 3.57422 19.7239Z" fill="#B4ACBF"/>
</svg>
