<svg width="38" height="70" viewBox="0 0 38 70" fill="none" xmlns="http://www.w3.org/2000/svg">
<path d="M30.1554 10.2988C30.1554 15.6154 25.3175 19.9653 19.2701 19.9653C13.2227 19.9653 8.38477 15.6154 8.38477 10.2988C8.38477 4.98224 13.2227 0.632324 19.2701 0.632324C25.3175 0.632324 30.1554 4.98224 30.1554 10.2988Z" fill="#CFC6DC"/>
<path d="M37.653 23.5902C37.653 30.84 29.4285 36.8815 19.2689 36.8815C9.10923 36.8815 0.884766 30.84 0.884766 23.5902C0.884766 16.3404 9.10923 10.2988 19.2689 10.2988C29.4285 10.2988 37.653 16.3404 37.653 23.5902Z" fill="#CFC6DC"/>
<path d="M4.0293 19.7236C4.0293 19.7236 14.9146 23.3485 18.3012 24.3152L19.0269 6.43225L19.5107 16.582C21.6878 15.132 28.4609 11.2655 28.4609 11.2655C28.4609 11.2655 21.6878 17.5486 19.7526 19.2403L20.2364 28.9067C24.3486 26.7318 34.9921 21.4152 34.9921 21.4152C34.9921 21.4152 23.1392 29.6317 20.2364 31.565L21.6877 69.9891H16.8498L18.5431 26.9735C17.0917 26.4901 4.0293 19.7236 4.0293 19.7236Z" fill="#B4ACBF"/>
</svg>
