<svg width="157" height="33" viewBox="0 0 157 33" fill="none" xmlns="http://www.w3.org/2000/svg">
<path d="M150.049 25.7658C148.356 25.7658 146.904 26.4907 145.695 27.4574C143.759 23.5908 138.196 20.9325 131.423 20.9325C127.311 20.9325 123.44 21.8992 120.779 23.8325C119.086 20.4492 115.458 18.0326 111.345 18.0326C108.443 18.0326 105.782 19.2409 103.847 20.9325C99.9762 15.3743 92.2355 11.2661 83.0434 11.2661C76.7541 11.2661 70.9486 13.1994 66.5945 16.341C63.2079 6.91618 54.0158 0.149658 43.3724 0.149658C32.7289 0.149658 23.7787 6.91618 20.1503 16.341C18.457 15.616 16.5218 15.1327 14.3447 15.1327C6.60405 15.1327 0.556641 21.4159 0.556641 28.9074C0.556641 30.1157 0.79853 31.324 1.04043 32.5323H19.6665H27.6491H60.3051H67.0782H101.186H105.782H116.909H121.263H143.76H145.937H156.338V32.2906C156.338 28.6657 153.435 25.7658 150.049 25.7658Z" fill="#F4EBFF"/>
</svg>
