<svg width="187" height="40" viewBox="0 0 187 40" fill="none" xmlns="http://www.w3.org/2000/svg">
<path d="M179.668 31.3314C177.732 31.3314 175.797 32.0564 174.588 33.2647C172.411 28.6731 165.637 25.5315 157.413 25.5315C152.333 25.5315 147.737 26.7398 144.593 28.9148C142.415 24.8065 138.303 21.9066 133.223 21.9066C129.837 21.9066 126.692 23.3566 124.273 25.5315C119.677 18.765 110.243 14.1735 99.3578 14.1735C91.859 14.1735 84.8441 16.3484 79.7642 20.215C75.652 8.85691 64.7666 0.88208 51.9461 0.88208C39.3675 0.88208 28.4822 8.8569 24.128 19.9733C21.951 19.0067 19.7739 18.5234 17.113 18.5234C7.92093 18.5234 0.664062 26.0149 0.664062 34.9563C0.664062 36.4063 0.90593 37.8563 1.38972 39.3062H23.6442H33.0782H72.0235H80.248H120.887H126.208H139.513H144.593H171.443H174.104H186.682V39.0646C187.166 34.7147 183.78 31.3314 179.668 31.3314Z" fill="#F4EBFF"/>
</svg>
