<svg width="202" height="42" viewBox="0 0 202 42" fill="none" xmlns="http://www.w3.org/2000/svg">
<path d="M193.799 33.1473C191.622 33.1473 189.687 34.1139 188.235 35.3222C185.816 30.489 178.56 26.8641 169.851 26.8641C164.288 26.8641 159.45 28.314 156.063 30.489C153.644 26.1391 149.048 22.9975 143.726 22.9975C140.098 22.9975 136.711 24.4475 134.051 26.8641C129.213 19.6142 119.053 14.5394 107.2 14.5394C98.9756 14.5394 91.4768 16.956 86.1551 21.0642C81.559 8.73948 69.948 0.0396729 56.1599 0.0396729C42.3718 0.0396729 30.7608 8.73948 26.1648 20.8225C23.9877 19.8559 21.3268 19.1309 18.666 19.1309C8.7482 19.1309 0.765625 27.1057 0.765625 37.0139C0.765625 38.7055 1.00749 40.1555 1.49129 41.8471H25.439H35.5987H77.6887H86.397H130.422H136.228H150.741H156.305H185.333H188.235H201.782V41.6054C202.024 36.7722 198.395 33.1473 193.799 33.1473Z" fill="#F4EBFF"/>
</svg>
