<svg width="93" height="27" viewBox="0 0 93 27" fill="none" xmlns="http://www.w3.org/2000/svg">
<path d="M83.3569 16.0325C81.1798 16.0325 79.0027 16.9992 77.5513 18.2075C76.3419 8.54102 68.1174 0.807861 57.9577 0.807861C49.2494 0.807861 41.9925 6.60773 39.3317 14.3409C36.9127 10.2326 32.5586 7.57438 27.4787 7.57438C20.9475 7.57438 15.6258 12.1659 14.1744 17.9658C12.7231 16.7575 11.0298 16.0325 9.09461 16.0325C4.49857 16.0325 0.870117 19.6574 0.870117 24.249C0.870117 25.2157 1.11202 26.1823 1.35391 26.9073H15.3839H17.0772H39.8155H40.2993H75.3743H76.8257H92.0651C92.307 26.1823 92.5489 25.2157 92.5489 24.249C92.0651 19.8991 88.1948 16.0325 83.3569 16.0325Z" fill="#F4EBFF"/>
</svg>
