<svg width="1342" height="125" viewBox="0 0 1342 125" fill="none" xmlns="http://www.w3.org/2000/svg">
<path d="M1334.3 60.0817C1332.61 60.0817 1330.91 60.8067 1329.7 61.7733C1327.77 57.6651 1321.72 54.7651 1314.7 54.7651C1310.35 54.7651 1306.24 55.9734 1303.34 57.6651C1301.4 54.0401 1297.77 51.6235 1293.42 51.6235C1290.27 51.6235 1287.61 52.8318 1285.68 54.7651C1281.56 48.7236 1273.34 44.6153 1263.66 44.6153C1256.89 44.6153 1250.84 46.5486 1246.49 49.9319C1242.86 40.0238 1233.19 32.7739 1222.06 32.7739C1210.93 32.7739 1201.26 39.7821 1197.63 49.6902C1195.69 48.7236 1193.76 48.2403 1191.58 48.2403C1183.6 48.2403 1177.07 54.7651 1177.07 62.7399C1177.07 64.1899 1177.31 65.3982 1177.55 66.6065H1197.14H1205.61H1239.96H1247.22H1283.26H1288.1H1299.95H1304.55H1328.25H1330.67H1341.8V66.3649C1341.07 62.9816 1338.17 60.0817 1334.3 60.0817Z" fill="#F4EBFF"/>
<path d="M1020.32 51.8653C1018.14 51.8653 1015.97 52.8319 1014.51 54.0402C1013.3 44.3738 1005.08 36.6406 994.921 36.6406C986.212 36.6406 978.955 42.4405 976.295 50.1737C973.876 46.0654 969.522 43.4071 964.442 43.4071C957.91 43.4071 952.589 47.9987 951.137 53.7986C949.686 52.5903 947.993 51.8653 946.057 51.8653C941.461 51.8653 937.833 55.4902 937.833 60.0818C937.833 61.0484 938.075 62.0151 938.317 62.74H952.347H954.04H976.778H977.262H1012.34H1013.79H1029.03C1029.27 62.0151 1029.51 61.0484 1029.51 60.0818C1029.03 55.7319 1025.16 51.8653 1020.32 51.8653Z" fill="#F4EBFF"/>
<path d="M82.4867 18.0325C80.3097 18.0325 78.1326 18.9992 76.6812 20.2075C75.4717 10.541 67.2473 2.80786 57.0876 2.80786C48.3793 2.80786 41.1224 8.60773 38.4616 16.3409C36.0426 12.2326 31.6885 9.57438 26.6086 9.57438C20.0774 9.57438 14.7557 14.1659 13.3043 19.9658C11.8529 18.7575 10.1597 18.0325 8.22449 18.0325C3.62845 18.0325 0 21.6574 0 26.249C0 27.2157 0.241898 28.1823 0.483795 28.9073H14.5138H16.2071H38.9453H39.4291H74.5042H75.9555H91.195C91.4369 28.1823 91.6788 27.2157 91.6788 26.249C91.195 21.8991 87.3247 18.0325 82.4867 18.0325Z" fill="#F4EBFF"/>
<path d="M453.796 67.3314C451.861 67.3314 449.926 68.0564 448.717 69.2647C446.54 64.6731 439.766 61.5315 431.542 61.5315C426.462 61.5315 421.866 62.7398 418.721 64.9148C416.544 60.8065 412.432 57.9066 407.352 57.9066C403.966 57.9066 400.821 59.3566 398.402 61.5315C393.806 54.765 384.372 50.1735 373.487 50.1735C365.988 50.1735 358.973 52.3484 353.893 56.215C349.781 44.8569 338.896 36.8821 326.075 36.8821C313.496 36.8821 302.611 44.8569 298.257 55.9733C296.08 55.0067 293.903 54.5234 291.242 54.5234C282.05 54.5234 274.793 62.0149 274.793 70.9563C274.793 72.4063 275.035 73.8563 275.519 75.3062H297.773H307.207H346.152H354.377H395.016H400.337H413.642H418.721H445.572H448.233H460.811V75.0646C461.295 70.7147 457.909 67.3314 453.796 67.3314Z" fill="#F4EBFF"/>
<path d="M837.929 116.147C835.752 116.147 833.817 117.114 832.365 118.322C829.946 113.489 822.689 109.864 813.981 109.864C808.418 109.864 803.58 111.314 800.193 113.489C797.774 109.139 793.178 105.997 787.856 105.997C784.228 105.997 780.841 107.447 778.181 109.864C773.343 102.614 763.183 97.5394 751.33 97.5394C743.106 97.5394 735.607 99.956 730.285 104.064C725.689 91.7395 714.078 83.0397 700.29 83.0397C686.502 83.0397 674.891 91.7395 670.295 103.823C668.118 102.856 665.457 102.131 662.796 102.131C652.878 102.131 644.896 110.106 644.896 120.014C644.896 121.705 645.137 123.155 645.621 124.847H669.569H679.729H721.819H730.527H774.552H780.358H794.871H800.435H829.463H832.365H845.912V124.605C846.153 119.772 842.525 116.147 837.929 116.147Z" fill="#F4EBFF"/>
<path d="M681.18 25.7658C679.486 25.7658 678.035 26.4907 676.826 27.4574C674.89 23.5908 669.327 20.9325 662.554 20.9325C658.441 20.9325 654.571 21.8992 651.91 23.8325C650.217 20.4492 646.588 18.0326 642.476 18.0326C639.573 18.0326 636.913 19.2409 634.977 20.9325C631.107 15.3743 623.366 11.2661 614.174 11.2661C607.885 11.2661 602.079 13.1994 597.725 16.341C594.339 6.91618 585.147 0.149658 574.503 0.149658C563.86 0.149658 554.91 6.91618 551.281 16.341C549.588 15.616 547.653 15.1327 545.476 15.1327C537.735 15.1327 531.688 21.4159 531.688 28.9074C531.688 30.1157 531.929 31.324 532.171 32.5323H550.797H558.78H591.436H598.209H632.317H636.913H648.04H652.394H674.89H677.067H687.469V32.2906C687.469 28.6657 684.566 25.7658 681.18 25.7658Z" fill="#F4EBFF"/>
</svg>
