<svg width="1586" height="360" viewBox="0 0 1586 360" fill="none" xmlns="http://www.w3.org/2000/svg">
<path d="M1585.15 359.231V196.351H1573.78V64.8873H1522.74V111.528H1519.35V117.086H1515.72V122.886H1510.16L1498.31 133.761V148.985H1490.81V42.6545H1445.09V158.652L1413.4 158.894V130.619H1399.13V125.303H1397.68V72.6205H1358.01V71.8955H1356.8V54.9792L1354.38 52.3209H1313.01L1310.6 54.9792V83.2536H1309.39V116.12H1310.6V146.327L1306.73 143.427L1291.24 132.552L1286.89 135.694V133.519L1284.95 134.969V136.902L1277.7 141.977L1270.44 136.902V134.969L1268.51 133.519V135.694L1264.39 132.552L1248.67 143.427L1244.8 146.327V86.8785L1242.62 84.2202H1201.02L1198.84 86.8785V103.795H1197.63V104.761H1157.96V125.303H1156.51V130.619H1142.24V160.102L1125.06 149.952L1110.31 158.652V81.5619H1064.59V148.985H1057.09V133.761L1045.23 122.886H1039.67V117.086H1036.04V111.528H1032.9V96.3033H1010.4V135.452H972.908V195.384H938.559V182.093H924.77V195.384H915.578V170.977H890.179V210.851H863.329V123.369H834.785V195.868H810.111V167.11H795.114V95.3366H748.428V195.868H725.448V156.235L692.792 197.318V226.8H666.183V148.985H625.786V107.661H596.275V150.435H580.552V53.2876H539.429V145.844H500V186.443H480.89V214.476H450.653V127.236H413.643V164.452H396.227V25.7382H363.57V67.7872L346.396 85.1868V140.286H317.852V164.452H269.473V53.2876H231.253V117.811H193.517V75.2787H168.602V0.847046H121.674V164.452H96.2748V74.7954H45.2347V200.459H0V359.231H1585.15Z" fill="#F4EBFF"/>
<path d="M1565.07 198.284L1562.65 199.976V235.984L1558.78 234.292L1543.3 227.767L1538.94 229.7V228.251L1537.01 229.217V230.425L1529.75 233.567L1522.49 230.425V229.217L1520.56 228.251V229.7L1516.2 227.767L1500.72 234.292L1496.85 235.984V217.617H1498.06V197.801H1496.85V180.402L1494.43 178.71H1453.07L1450.65 180.402V190.793H1449.44V191.276H1409.77V223.176H1408.32V226.317H1394.05V243.475L1362.12 243.233V152.852H1316.4V237.192H1308.9V228.009L1297.05 221.484H1291.72V217.859H1288.1V214.717H1284.71V186.443H1233.67V265.95H1215.77V240.817L1216.74 240.334C1216.25 240.092 1215.77 239.85 1215.29 239.367C1214.56 239.125 1214.08 238.642 1213.59 238.4C1209.48 236.467 1204.64 235.259 1199.56 235.017C1199.56 235.017 1199.32 235.017 1199.08 235.017C1198.84 235.017 1198.84 235.017 1198.59 235.017C1197.63 235.017 1196.66 235.017 1195.69 235.017C1187.47 235.017 1179.97 236.95 1174.65 240.092H1175.13V241.542V265.708L1166.42 270.3L1164.73 230.667H1156.99V221.001H1153.36V219.067H1149.97V218.342H1121.91V219.067H1118.53V221.001H1115.14V252.175H1084.66V251.45H1082.73V252.175H1073.78L1067.49 256.767V192.243H1033.86V243.233H1002.42L1000.48 244.2V268.608C984.758 262.566 967.826 261.6 949.683 268.608C949.683 268.608 949.683 268.608 949.683 268.366C949.683 242.508 949.683 232.359 949.683 231.15L947.748 230.184H915.576L913.641 231.15V238.159C881.952 238.4 887.516 238.4 881.952 238.4V259.908H880.985V262.083H869.858V273.683H845.184V212.784H809.867V269.816H804.062V263.533L794.87 259.183H790.515V256.767H787.613V254.592H784.952V235.5H745.281V289.149H731.493V272.233L732.218 271.991C731.735 271.75 731.493 271.508 731.009 271.508C730.525 271.266 730.041 271.025 729.558 271.025C726.413 269.816 722.784 268.85 718.672 268.608H718.43H718.188C717.463 268.608 716.737 268.608 715.769 268.608C709.48 268.608 703.675 269.816 699.562 271.991H699.804V272.958V289.149L693.031 292.291L691.822 265.708H685.774V259.183H682.871V257.975H680.211V257.492H658.44V257.975H655.779V259.183H652.876V280.208H629.17V279.724H627.719V280.208H621.672L616.834 283.108V239.609H593.612V198.768H573.776L571.357 200.218V231.15H506.287V230.909C506.287 197.801 506.287 185.235 506.287 183.301L503.868 181.852H462.988L460.569 183.301V192.243H459.601V192.726H420.414V220.034H418.962V222.692H404.932V237.434H373.486V159.619H328.251V232.359H320.752V224.384L309.141 218.826H303.578V215.684H299.949V212.784H296.563V188.376H246.006V257.008H228.348V235.984L229.316 235.5C228.832 235.259 228.348 235.017 227.864 234.775C227.138 234.534 226.655 234.292 226.171 234.05C222.301 232.359 217.463 231.392 212.383 231.15C212.383 231.15 212.141 231.15 211.899 231.15C211.657 231.15 211.657 231.15 211.415 231.15C210.448 231.15 209.48 231.15 208.512 231.15C200.53 231.15 193.031 232.842 187.709 235.5H188.193V236.95V257.733L179.727 261.6L178.033 227.526H170.293V219.067H166.664V217.376H163.278V216.651H135.702V217.376H132.315V219.067H128.687V245.892H98.4495V245.167H96.7563V245.892H88.048L81.7587 249.758V194.176H48.377V359.231H1033.86V358.264H1585.15V198.284H1565.07Z" fill="#E5DAF2"/>
<path d="M1249.87 70.4456V51.1127H1208.99V70.4456L1192.79 102.828V359.231H1266.08V102.828L1249.87 70.4456Z" fill="#AAA3B5"/>
<path d="M1227.38 70.4456H1186.5L1170.29 102.828V359.231H1243.59V102.828L1227.38 70.4456Z" fill="#B5ADC0"/>
<path d="M1227.38 51.1127H1186.5V70.4456H1227.38V51.1127Z" fill="#D6CDE4"/>
<path d="M1184.81 113.461H1177.31V124.336H1184.81V113.461Z" fill="white"/>
<path d="M1197.63 113.461H1190.13V124.336H1197.63V113.461Z" fill="#D6CDE4"/>
<path d="M1210.69 113.461H1203.2V124.336H1210.69V113.461Z" fill="#D6CDE4"/>
<path d="M1223.76 113.461H1216.26V124.336H1223.76V113.461Z" fill="white"/>
<path d="M1236.82 113.461H1229.32V124.336H1236.82V113.461Z" fill="#D6CDE4"/>
<path d="M1184.81 131.344H1177.31V142.219H1184.81V131.344Z" fill="#D6CDE4"/>
<path d="M1197.63 131.344H1190.13V142.219H1197.63V131.344Z" fill="#D6CDE4"/>
<path d="M1210.69 131.344H1203.19V142.219H1210.69V131.344Z" fill="#D6CDE4"/>
<path d="M1223.75 131.344H1216.25V142.219H1223.75V131.344Z" fill="#D6CDE4"/>
<path d="M1236.82 131.344H1229.32V142.219H1236.82V131.344Z" fill="white"/>
<path d="M1184.81 148.985H1177.31V159.86H1184.81V148.985Z" fill="#D6CDE4"/>
<path d="M1197.63 148.986H1190.13V159.86H1197.63V148.986Z" fill="white"/>
<path d="M1210.69 148.986H1203.19V159.86H1210.69V148.986Z" fill="#D6CDE4"/>
<path d="M1223.75 148.986H1216.25V159.86H1223.75V148.986Z" fill="#D6CDE4"/>
<path d="M1236.82 148.986H1229.32V159.86H1236.82V148.986Z" fill="#D6CDE4"/>
<path d="M1184.81 166.868H1177.31V177.743H1184.81V166.868Z" fill="#D6CDE4"/>
<path d="M1197.63 166.869H1190.13V177.743H1197.63V166.869Z" fill="#D6CDE4"/>
<path d="M1210.69 166.869H1203.19V177.743H1210.69V166.869Z" fill="#D6CDE4"/>
<path d="M1223.75 166.869H1216.25V177.743H1223.75V166.869Z" fill="white"/>
<path d="M1236.82 166.869H1229.32V177.743H1236.82V166.869Z" fill="#D6CDE4"/>
<path d="M1184.81 184.51H1177.31V195.384H1184.81V184.51Z" fill="#D6CDE4"/>
<path d="M1197.63 184.51H1190.13V195.385H1197.63V184.51Z" fill="white"/>
<path d="M1210.69 184.51H1203.19V195.385H1210.69V184.51Z" fill="#D6CDE4"/>
<path d="M1223.75 184.51H1216.25V195.385H1223.75V184.51Z" fill="#D6CDE4"/>
<path d="M1236.82 184.51H1229.32V195.385H1236.82V184.51Z" fill="#D6CDE4"/>
<path d="M1184.81 202.393H1177.31V213.268H1184.81V202.393Z" fill="#D6CDE4"/>
<path d="M1197.63 202.393H1190.13V213.268H1197.63V202.393Z" fill="#D6CDE4"/>
<path d="M1210.69 202.393H1203.19V213.268H1210.69V202.393Z" fill="#D6CDE4"/>
<path d="M1223.75 202.393H1216.25V213.268H1223.75V202.393Z" fill="white"/>
<path d="M1236.82 202.393H1229.32V213.268H1236.82V202.393Z" fill="#D6CDE4"/>
<path d="M1184.81 220.034H1177.31V230.909H1184.81V220.034Z" fill="white"/>
<path d="M1197.63 220.034H1190.13V230.909H1197.63V220.034Z" fill="white"/>
<path d="M1210.69 220.034H1203.19V230.909H1210.69V220.034Z" fill="#D6CDE4"/>
<path d="M1223.75 220.034H1216.25V230.909H1223.75V220.034Z" fill="white"/>
<path d="M1236.82 220.034H1229.32V230.909H1236.82V220.034Z" fill="#D6CDE4"/>
<path d="M1184.81 237.918H1177.31V248.793H1184.81V237.918Z" fill="#D6CDE4"/>
<path d="M1197.63 237.917H1190.13V248.792H1197.63V237.917Z" fill="#D6CDE4"/>
<path d="M1210.69 237.917H1203.19V248.792H1210.69V237.917Z" fill="white"/>
<path d="M1223.75 237.917H1216.25V248.792H1223.75V237.917Z" fill="#D6CDE4"/>
<path d="M1236.82 237.917H1229.32V248.792H1236.82V237.917Z" fill="white"/>
<path d="M1184.81 254.833H1177.31V265.708H1184.81V254.833Z" fill="#D6CDE4"/>
<path d="M1197.63 254.833H1190.13V265.708H1197.63V254.833Z" fill="white"/>
<path d="M1210.69 254.833H1203.2V265.708H1210.69V254.833Z" fill="#D6CDE4"/>
<path d="M1223.76 254.833H1216.26V265.708H1223.76V254.833Z" fill="white"/>
<path d="M1236.82 254.833H1229.32V265.708H1236.82V254.833Z" fill="#D6CDE4"/>
<path d="M1184.81 272.716H1177.31V283.591H1184.81V272.716Z" fill="#D6CDE4"/>
<path d="M1197.63 272.716H1190.13V283.591H1197.63V272.716Z" fill="white"/>
<path d="M1210.69 272.716H1203.19V283.591H1210.69V272.716Z" fill="#D6CDE4"/>
<path d="M1223.75 272.716H1216.25V283.591H1223.75V272.716Z" fill="white"/>
<path d="M1236.82 272.716H1229.32V283.591H1236.82V272.716Z" fill="white"/>
<path d="M1184.81 290.357H1177.31V301.232H1184.81V290.357Z" fill="#D6CDE4"/>
<path d="M1197.63 290.357H1190.13V301.232H1197.63V290.357Z" fill="#D6CDE4"/>
<path d="M1210.69 290.357H1203.19V301.232H1210.69V290.357Z" fill="white"/>
<path d="M1223.75 290.357H1216.25V301.232H1223.75V290.357Z" fill="#D6CDE4"/>
<path d="M1236.82 290.357H1229.32V301.232H1236.82V290.357Z" fill="#D6CDE4"/>
<path d="M1184.81 308.241H1177.31V319.115H1184.81V308.241Z" fill="white"/>
<path d="M1197.63 308.241H1190.13V319.115H1197.63V308.241Z" fill="#D6CDE4"/>
<path d="M1210.69 308.241H1203.19V319.115H1210.69V308.241Z" fill="#D6CDE4"/>
<path d="M1223.75 308.241H1216.25V319.115H1223.75V308.241Z" fill="#D6CDE4"/>
<path d="M1236.82 308.241H1229.32V319.115H1236.82V308.241Z" fill="white"/>
<path d="M1184.81 325.882H1177.31V336.757H1184.81V325.882Z" fill="#D6CDE4"/>
<path d="M1197.63 325.882H1190.13V336.757H1197.63V325.882Z" fill="#D6CDE4"/>
<path d="M1210.69 325.882H1203.19V336.757H1210.69V325.882Z" fill="white"/>
<path d="M1223.75 325.882H1216.25V336.757H1223.75V325.882Z" fill="white"/>
<path d="M1236.82 325.882H1229.32V336.757H1236.82V325.882Z" fill="#D6CDE4"/>
<path d="M877.598 359.231V152.852L861.391 120.228V100.895H820.511V120.228L804.304 152.852V359.231H877.598Z" fill="#AAA3B5"/>
<path d="M855.345 359.231V152.852L839.138 120.228H798.258L781.809 152.852V359.231H855.345Z" fill="#B5ADC0"/>
<path d="M839.138 100.895H798.258V120.228H839.138V100.895Z" fill="#D6CDE4"/>
<path d="M796.321 163.244H788.822V174.118H796.321V163.244Z" fill="white"/>
<path d="M809.384 163.244H801.885V174.118H809.384V163.244Z" fill="#D6CDE4"/>
<path d="M822.445 163.244H814.946V174.118H822.445V163.244Z" fill="#D6CDE4"/>
<path d="M835.266 163.244H827.768V174.118H835.266V163.244Z" fill="white"/>
<path d="M848.329 163.244H840.83V174.118H848.329V163.244Z" fill="#D6CDE4"/>
<path d="M796.321 181.127H788.822V192.002H796.321V181.127Z" fill="#D6CDE4"/>
<path d="M809.384 181.127H801.885V192.001H809.384V181.127Z" fill="white"/>
<path d="M822.445 181.127H814.946V192.001H822.445V181.127Z" fill="#D6CDE4"/>
<path d="M835.266 181.127H827.768V192.001H835.266V181.127Z" fill="#D6CDE4"/>
<path d="M848.329 181.127H840.83V192.001H848.329V181.127Z" fill="#D6CDE4"/>
<path d="M796.321 198.769H788.822V209.643H796.321V198.769Z" fill="white"/>
<path d="M809.384 198.768H801.885V209.643H809.384V198.768Z" fill="#D6CDE4"/>
<path d="M822.445 198.768H814.946V209.643H822.445V198.768Z" fill="white"/>
<path d="M835.266 198.768H827.768V209.643H835.266V198.768Z" fill="white"/>
<path d="M848.329 198.768H840.83V209.643H848.329V198.768Z" fill="#D6CDE4"/>
<path d="M796.321 216.651H788.822V227.526H796.321V216.651Z" fill="#D6CDE4"/>
<path d="M809.384 216.651H801.885V227.526H809.384V216.651Z" fill="#D6CDE4"/>
<path d="M822.445 216.651H814.946V227.526H822.445V216.651Z" fill="white"/>
<path d="M835.266 216.651H827.768V227.526H835.266V216.651Z" fill="#D6CDE4"/>
<path d="M848.329 216.651H840.83V227.526H848.329V216.651Z" fill="#D6CDE4"/>
<path d="M796.321 234.292H788.822V245.167H796.321V234.292Z" fill="#D6CDE4"/>
<path d="M809.384 234.292H801.885V245.167H809.384V234.292Z" fill="#D6CDE4"/>
<path d="M822.445 234.292H814.946V245.167H822.445V234.292Z" fill="white"/>
<path d="M835.266 234.292H827.768V245.167H835.266V234.292Z" fill="#D6CDE4"/>
<path d="M848.329 234.292H840.83V245.167H848.329V234.292Z" fill="#D6CDE4"/>
<path d="M796.321 252.175H788.822V263.05H796.321V252.175Z" fill="#D6CDE4"/>
<path d="M809.384 252.175H801.885V263.05H809.384V252.175Z" fill="white"/>
<path d="M822.445 252.175H814.946V263.05H822.445V252.175Z" fill="#D6CDE4"/>
<path d="M835.266 252.175H827.768V263.05H835.266V252.175Z" fill="#D6CDE4"/>
<path d="M848.329 252.175H840.83V263.05H848.329V252.175Z" fill="white"/>
<path d="M796.321 270.059H788.822V280.934H796.321V270.059Z" fill="white"/>
<path d="M809.384 270.058H801.885V280.933H809.384V270.058Z" fill="#D6CDE4"/>
<path d="M822.445 270.058H814.946V280.933H822.445V270.058Z" fill="#D6CDE4"/>
<path d="M835.266 270.058H827.768V280.933H835.266V270.058Z" fill="#D6CDE4"/>
<path d="M848.329 270.058H840.83V280.933H848.329V270.058Z" fill="white"/>
<path d="M796.321 287.7H788.822V298.575H796.321V287.7Z" fill="#D6CDE4"/>
<path d="M809.384 287.699H801.885V298.574H809.384V287.699Z" fill="#D6CDE4"/>
<path d="M822.445 287.699H814.946V298.574H822.445V287.699Z" fill="white"/>
<path d="M835.266 287.699H827.768V298.574H835.266V287.699Z" fill="white"/>
<path d="M848.329 287.699H840.83V298.574H848.329V287.699Z" fill="#D6CDE4"/>
<path d="M796.321 304.857H788.822V315.732H796.321V304.857Z" fill="#D6CDE4"/>
<path d="M809.384 304.857H801.885V315.732H809.384V304.857Z" fill="white"/>
<path d="M822.445 304.857H814.946V315.732H822.445V304.857Z" fill="#D6CDE4"/>
<path d="M835.266 304.857H827.768V315.732H835.266V304.857Z" fill="#D6CDE4"/>
<path d="M848.329 304.857H840.83V315.732H848.329V304.857Z" fill="#D6CDE4"/>
<path d="M796.321 322.499H788.822V333.374H796.321V322.499Z" fill="#D6CDE4"/>
<path d="M809.384 322.499H801.885V333.374H809.384V322.499Z" fill="#D6CDE4"/>
<path d="M822.445 322.499H814.946V333.374H822.445V322.499Z" fill="white"/>
<path d="M835.266 322.499H827.768V333.374H835.266V322.499Z" fill="white"/>
<path d="M848.329 322.499H840.83V333.374H848.329V322.499Z" fill="white"/>
<path d="M796.321 340.381H788.822V351.256H796.321V340.381Z" fill="white"/>
<path d="M809.384 340.381H801.885V351.256H809.384V340.381Z" fill="white"/>
<path d="M822.445 340.381H814.946V351.256H822.445V340.381Z" fill="#D6CDE4"/>
<path d="M835.266 340.381H827.768V351.256H835.266V340.381Z" fill="#D6CDE4"/>
<path d="M848.329 340.381H840.83V351.256H848.329V340.381Z" fill="#D6CDE4"/>
<path d="M520.561 359.231H584.179V240.092L520.561 206.984V359.231Z" fill="#D6CDE4"/>
<path d="M576.682 246.133H528.061V251.933H576.682V246.133Z" fill="#EDE3FC"/>
<path d="M576.682 257.975H528.061V263.775H576.682V257.975Z" fill="white"/>
<path d="M576.682 270.058H528.061V275.858H576.682V270.058Z" fill="#EDE3FC"/>
<path d="M576.682 282.141H528.061V287.941H576.682V282.141Z" fill="white"/>
<path d="M576.682 293.982H528.061V299.782H576.682V293.982Z" fill="white"/>
<path d="M576.682 306.066H528.061V311.866H576.682V306.066Z" fill="#EDE3FC"/>
<path d="M576.682 317.907H528.061V323.707H576.682V317.907Z" fill="#EDE3FC"/>
<path d="M576.682 329.99H528.061V335.79H576.682V329.99Z" fill="#EDE3FC"/>
<path d="M576.682 342.074H528.061V347.874H576.682V342.074Z" fill="#EDE3FC"/>
<path d="M520.56 206.984H495.887V359.231H520.56V206.984Z" fill="#B5ADC0"/>
<path d="M1071.36 359.231H1007.74V240.092L1071.36 206.984V359.231Z" fill="#D6CDE4"/>
<path d="M1063.86 246.133H1015.24V251.933H1063.86V246.133Z" fill="#EDE3FC"/>
<path d="M1063.86 257.974H1015.24V263.774H1063.86V257.974Z" fill="white"/>
<path d="M1063.86 270.058H1015.24V275.858H1063.86V270.058Z" fill="#EDE3FC"/>
<path d="M1063.86 282.141H1015.24V287.941H1063.86V282.141Z" fill="white"/>
<path d="M1063.86 293.982H1015.24V299.782H1063.86V293.982Z" fill="#EDE3FC"/>
<path d="M1063.86 306.065H1015.24V311.865H1063.86V306.065Z" fill="white"/>
<path d="M1063.86 317.906H1015.24V323.706H1063.86V317.906Z" fill="#EDE3FC"/>
<path d="M1063.86 329.99H1015.24V335.789H1063.86V329.99Z" fill="#EDE3FC"/>
<path d="M1063.86 342.073H1015.24V347.872H1063.86V342.073Z" fill="#EDE3FC"/>
<path d="M1096.03 206.984H1071.36V359.231H1096.03V206.984Z" fill="#B5ADC0"/>
<path d="M970.247 359.231H906.628V170.977L970.247 137.869V359.231Z" fill="#D6CDE4"/>
<path d="M962.747 240.092H914.126V245.892H962.747V240.092Z" fill="white"/>
<path d="M962.747 252.175H914.126V257.975H962.747V252.175Z" fill="#EDE3FC"/>
<path d="M962.747 264.016H914.126V269.816H962.747V264.016Z" fill="#EDE3FC"/>
<path d="M962.747 276.1H914.126V281.899H962.747V276.1Z" fill="white"/>
<path d="M962.747 287.941H914.126V293.741H962.747V287.941Z" fill="white"/>
<path d="M962.747 300.024H914.126V305.824H962.747V300.024Z" fill="#EDE3FC"/>
<path d="M962.747 180.16H914.126V185.96H962.747V180.16Z" fill="#EDE3FC"/>
<path d="M962.747 192.243H914.126V198.043H962.747V192.243Z" fill="#EDE3FC"/>
<path d="M962.747 204.084H914.126V209.884H962.747V204.084Z" fill="white"/>
<path d="M962.747 216.167H914.126V221.967H962.747V216.167Z" fill="#EDE3FC"/>
<path d="M962.747 228.009H914.126V233.809H962.747V228.009Z" fill="#EDE3FC"/>
<path d="M962.747 312.107H914.126V317.907H962.747V312.107Z" fill="#EDE3FC"/>
<path d="M962.747 323.948H914.126V329.748H962.747V323.948Z" fill="#EDE3FC"/>
<path d="M962.747 336.032H914.126V341.832H962.747V336.032Z" fill="#EDE3FC"/>
<path d="M994.918 137.869H970.245V359.231H994.918V137.869Z" fill="#B5ADC0"/>
<path d="M314.466 359.231H250.848V170.977L314.466 137.869V359.231Z" fill="#D6CDE4"/>
<path d="M306.967 240.092H258.346V245.892H306.967V240.092Z" fill="#EDE3FC"/>
<path d="M306.967 252.175H258.346V257.975H306.967V252.175Z" fill="white"/>
<path d="M306.967 264.016H258.346V269.816H306.967V264.016Z" fill="#EDE3FC"/>
<path d="M306.967 276.1H258.346V281.899H306.967V276.1Z" fill="#EDE3FC"/>
<path d="M306.967 287.941H258.346V293.741H306.967V287.941Z" fill="#EDE3FC"/>
<path d="M306.967 300.024H258.346V305.824H306.967V300.024Z" fill="white"/>
<path d="M306.967 180.16H258.346V185.96H306.967V180.16Z" fill="white"/>
<path d="M306.967 192.243H258.346V198.043H306.967V192.243Z" fill="#EDE3FC"/>
<path d="M306.967 204.084H258.346V209.884H306.967V204.084Z" fill="#EDE3FC"/>
<path d="M306.967 216.167H258.346V221.967H306.967V216.167Z" fill="white"/>
<path d="M306.967 228.009H258.346V233.809H306.967V228.009Z" fill="#EDE3FC"/>
<path d="M306.967 312.107H258.346V317.907H306.967V312.107Z" fill="white"/>
<path d="M306.967 323.948H258.346V329.748H306.967V323.948Z" fill="white"/>
<path d="M306.967 336.032H258.346V341.832H306.967V336.032Z" fill="#EDE3FC"/>
<path d="M339.14 137.869H314.467V359.231H339.14V137.869Z" fill="#B5ADC0"/>
<path d="M1543.06 359.231H1479.68V188.618L1543.06 154.544V359.231Z" fill="#B5ADC0"/>
<path d="M1496.61 239.367H1487.42V249.759H1496.61V239.367Z" fill="#C6BDD2"/>
<path d="M1509.43 239.367H1500.24V249.758H1509.43V239.367Z" fill="white"/>
<path d="M1522.5 239.367H1513.3V249.758H1522.5V239.367Z" fill="#C6BDD2"/>
<path d="M1535.56 239.367H1526.37V249.758H1535.56V239.367Z" fill="#C6BDD2"/>
<path d="M1496.61 253.625H1487.42V264.016H1496.61V253.625Z" fill="#C6BDD2"/>
<path d="M1509.43 253.625H1500.24V264.016H1509.43V253.625Z" fill="#C6BDD2"/>
<path d="M1522.5 253.625H1513.3V264.016H1522.5V253.625Z" fill="white"/>
<path d="M1535.56 253.625H1526.37V264.016H1535.56V253.625Z" fill="#C6BDD2"/>
<path d="M1496.61 267.883H1487.42V278.275H1496.61V267.883Z" fill="#C6BDD2"/>
<path d="M1509.43 267.883H1500.24V278.275H1509.43V267.883Z" fill="white"/>
<path d="M1522.5 267.883H1513.3V278.275H1522.5V267.883Z" fill="#C6BDD2"/>
<path d="M1535.56 267.883H1526.37V278.275H1535.56V267.883Z" fill="#C6BDD2"/>
<path d="M1496.61 282.141H1487.42V292.532H1496.61V282.141Z" fill="white"/>
<path d="M1509.43 282.141H1500.24V292.532H1509.43V282.141Z" fill="#C6BDD2"/>
<path d="M1522.5 282.141H1513.3V292.532H1522.5V282.141Z" fill="#C6BDD2"/>
<path d="M1535.56 282.141H1526.37V292.532H1535.56V282.141Z" fill="white"/>
<path d="M1496.61 296.399H1487.42V306.79H1496.61V296.399Z" fill="#C6BDD2"/>
<path d="M1509.43 296.399H1500.24V306.79H1509.43V296.399Z" fill="#C6BDD2"/>
<path d="M1522.5 296.399H1513.3V306.79H1522.5V296.399Z" fill="#C6BDD2"/>
<path d="M1535.56 296.399H1526.37V306.79H1535.56V296.399Z" fill="#C6BDD2"/>
<path d="M1496.61 310.657H1487.42V321.049H1496.61V310.657Z" fill="#C6BDD2"/>
<path d="M1509.43 310.657H1500.24V321.049H1509.43V310.657Z" fill="#C6BDD2"/>
<path d="M1522.5 310.657H1513.3V321.049H1522.5V310.657Z" fill="#C6BDD2"/>
<path d="M1535.56 310.657H1526.37V321.049H1535.56V310.657Z" fill="white"/>
<path d="M1496.61 324.915H1487.42V335.307H1496.61V324.915Z" fill="#C6BDD2"/>
<path d="M1509.43 324.915H1500.24V335.307H1509.43V324.915Z" fill="white"/>
<path d="M1522.5 324.915H1513.3V335.307H1522.5V324.915Z" fill="white"/>
<path d="M1535.56 324.915H1526.37V335.307H1535.56V324.915Z" fill="#C6BDD2"/>
<path d="M1496.61 339.173H1487.42V349.564H1496.61V339.173Z" fill="#C6BDD2"/>
<path d="M1509.43 339.173H1500.24V349.564H1509.43V339.173Z" fill="#C6BDD2"/>
<path d="M1522.5 339.173H1513.3V349.564H1522.5V339.173Z" fill="#C6BDD2"/>
<path d="M1535.56 339.173H1526.37V349.564H1535.56V339.173Z" fill="#C6BDD2"/>
<path d="M1496.61 196.351H1487.42V206.743H1496.61V196.351Z" fill="white"/>
<path d="M1509.43 196.351H1500.24V206.743H1509.43V196.351Z" fill="#C6BDD2"/>
<path d="M1522.5 196.351H1513.3V206.743H1522.5V196.351Z" fill="#C6BDD2"/>
<path d="M1535.56 196.351H1526.37V206.743H1535.56V196.351Z" fill="#C6BDD2"/>
<path d="M1496.61 210.609H1487.42V221H1496.61V210.609Z" fill="#C6BDD2"/>
<path d="M1509.43 210.609H1500.24V221H1509.43V210.609Z" fill="white"/>
<path d="M1522.5 210.609H1513.3V221H1522.5V210.609Z" fill="#C6BDD2"/>
<path d="M1535.56 210.609H1526.37V221H1535.56V210.609Z" fill="white"/>
<path d="M1496.61 225.109H1487.42V235.5H1496.61V225.109Z" fill="#C6BDD2"/>
<path d="M1509.43 225.109H1500.24V235.5H1509.43V225.109Z" fill="#C6BDD2"/>
<path d="M1522.5 225.109H1513.3V235.5H1522.5V225.109Z" fill="#C6BDD2"/>
<path d="M1535.56 225.109H1526.37V235.5H1535.56V225.109Z" fill="#C6BDD2"/>
<path d="M1564.83 154.544H1543.06V359.231H1564.83V154.544Z" fill="#AAA3B5"/>
<path d="M446.3 359.23H358.008V121.436L446.3 73.8285V359.23Z" fill="#B5ADC0"/>
<path d="M381.469 192.002H368.406V206.501H381.469V192.002Z" fill="white"/>
<path d="M399.609 192.001H386.547V206.501H399.609V192.001Z" fill="#C6BDD2"/>
<path d="M417.754 192.001H404.691V206.501H417.754V192.001Z" fill="#C6BDD2"/>
<path d="M435.896 192.001H422.834V206.501H435.896V192.001Z" fill="#C6BDD2"/>
<path d="M381.469 211.817H368.406V226.317H381.469V211.817Z" fill="#C6BDD2"/>
<path d="M399.609 211.817H386.547V226.317H399.609V211.817Z" fill="#C6BDD2"/>
<path d="M417.754 211.817H404.691V226.317H417.754V211.817Z" fill="white"/>
<path d="M435.896 211.817H422.834V226.317H435.896V211.817Z" fill="#C6BDD2"/>
<path d="M381.469 231.875H368.406V246.375H381.469V231.875Z" fill="#C6BDD2"/>
<path d="M399.609 231.875H386.547V246.375H399.609V231.875Z" fill="white"/>
<path d="M417.754 231.875H404.691V246.375H417.754V231.875Z" fill="#C6BDD2"/>
<path d="M435.896 231.875H422.834V246.375H435.896V231.875Z" fill="#C6BDD2"/>
<path d="M381.469 251.691H368.406V266.191H381.469V251.691Z" fill="#C6BDD2"/>
<path d="M399.609 251.691H386.547V266.191H399.609V251.691Z" fill="#C6BDD2"/>
<path d="M417.754 251.691H404.691V266.191H417.754V251.691Z" fill="white"/>
<path d="M435.896 251.691H422.834V266.191H435.896V251.691Z" fill="white"/>
<path d="M381.469 271.507H368.406V286.007H381.469V271.507Z" fill="#C6BDD2"/>
<path d="M399.609 271.507H386.547V286.007H399.609V271.507Z" fill="#C6BDD2"/>
<path d="M417.754 271.507H404.691V286.007H417.754V271.507Z" fill="#C6BDD2"/>
<path d="M435.896 271.507H422.834V286.007H435.896V271.507Z" fill="#C6BDD2"/>
<path d="M381.469 291.565H368.406V306.065H381.469V291.565Z" fill="#C6BDD2"/>
<path d="M399.609 291.565H386.547V306.065H399.609V291.565Z" fill="#C6BDD2"/>
<path d="M417.754 291.565H404.691V306.065H417.754V291.565Z" fill="white"/>
<path d="M435.896 291.565H422.834V306.065H435.896V291.565Z" fill="#C6BDD2"/>
<path d="M381.469 311.382H368.406V325.881H381.469V311.382Z" fill="#C6BDD2"/>
<path d="M399.609 311.382H386.547V325.881H399.609V311.382Z" fill="white"/>
<path d="M417.754 311.382H404.691V325.881H417.754V311.382Z" fill="#C6BDD2"/>
<path d="M435.896 311.382H422.834V325.881H435.896V311.382Z" fill="#C6BDD2"/>
<path d="M381.469 331.198H368.406V345.698H381.469V331.198Z" fill="#C6BDD2"/>
<path d="M399.609 331.198H386.547V345.698H399.609V331.198Z" fill="#C6BDD2"/>
<path d="M417.754 331.198H404.691V345.698H417.754V331.198Z" fill="#C6BDD2"/>
<path d="M435.896 331.198H422.834V345.698H435.896V331.198Z" fill="white"/>
<path d="M381.469 132.31H368.406V146.81H381.469V132.31Z" fill="white"/>
<path d="M399.609 132.31H386.547V146.809H399.609V132.31Z" fill="#C6BDD2"/>
<path d="M417.754 132.31H404.691V146.809H417.754V132.31Z" fill="#C6BDD2"/>
<path d="M435.896 132.31H422.834V146.809H435.896V132.31Z" fill="white"/>
<path d="M381.469 152.126H368.406V166.626H381.469V152.126Z" fill="#C6BDD2"/>
<path d="M399.609 152.126H386.547V166.626H399.609V152.126Z" fill="#C6BDD2"/>
<path d="M417.754 152.126H404.691V166.626H417.754V152.126Z" fill="white"/>
<path d="M435.896 152.126H422.834V166.626H435.896V152.126Z" fill="#C6BDD2"/>
<path d="M381.469 171.942H368.406V186.442H381.469V171.942Z" fill="#C6BDD2"/>
<path d="M399.609 171.942H386.547V186.442H399.609V171.942Z" fill="#C6BDD2"/>
<path d="M417.754 171.942H404.691V186.442H417.754V171.942Z" fill="white"/>
<path d="M435.896 171.942H422.834V186.442H435.896V171.942Z" fill="#C6BDD2"/>
<path d="M476.78 73.8282H446.301V359.23H476.78V73.8282Z" fill="#AAA3B5"/>
<path d="M1336.48 170.736H1296.32V359.232H1336.48V170.736Z" fill="#B4ACBF"/>
<path d="M1422.84 170.735H1336.48V359.231H1422.84V170.735Z" fill="#BCB4C8"/>
<path d="M1318.09 184.51H1310.35V193.451H1318.09V184.51Z" fill="#EDE3FC"/>
<path d="M1318.09 214.476H1310.35V223.417H1318.09V214.476Z" fill="#EDE3FC"/>
<path d="M1318.09 244.442H1310.35V253.383H1318.09V244.442Z" fill="#EDE3FC"/>
<path d="M1354.62 183.301H1341.8V195.384H1354.62V183.301Z" fill="white"/>
<path d="M1371.07 183.301H1358.25V195.384H1371.07V183.301Z" fill="white"/>
<path d="M1387.28 183.301H1374.46V195.384H1387.28V183.301Z" fill="#D6CDE4"/>
<path d="M1403.48 183.301H1390.66V195.384H1403.48V183.301Z" fill="white"/>
<path d="M1419.93 183.301H1407.11V195.384H1419.93V183.301Z" fill="white"/>
<path d="M1354.62 213.026H1341.8V225.109H1354.62V213.026Z" fill="white"/>
<path d="M1371.07 213.026H1358.25V225.109H1371.07V213.026Z" fill="#D6CDE4"/>
<path d="M1387.28 213.026H1374.46V225.109H1387.28V213.026Z" fill="white"/>
<path d="M1403.48 213.026H1390.66V225.109H1403.48V213.026Z" fill="#D6CDE4"/>
<path d="M1419.93 213.026H1407.11V225.109H1419.93V213.026Z" fill="white"/>
<path d="M1354.62 242.508H1341.8V254.591H1354.62V242.508Z" fill="white"/>
<path d="M1371.07 242.508H1358.25V254.591H1371.07V242.508Z" fill="white"/>
<path d="M1387.28 242.508H1374.46V254.591H1387.28V242.508Z" fill="white"/>
<path d="M1403.48 242.508H1390.66V254.591H1403.48V242.508Z" fill="#D6CDE4"/>
<path d="M1419.93 242.508H1407.11V254.591H1419.93V242.508Z" fill="white"/>
<path d="M1318.09 277.066H1310.35V286.007H1318.09V277.066Z" fill="#EDE3FC"/>
<path d="M1318.09 307.032H1310.35V315.974H1318.09V307.032Z" fill="#EDE3FC"/>
<path d="M1318.09 337.24H1310.35V346.181H1318.09V337.24Z" fill="#EDE3FC"/>
<path d="M1354.62 276.099H1341.8V288.183H1354.62V276.099Z" fill="white"/>
<path d="M1371.07 276.099H1358.25V288.183H1371.07V276.099Z" fill="#D6CDE4"/>
<path d="M1387.28 276.099H1374.46V288.183H1387.28V276.099Z" fill="#D6CDE4"/>
<path d="M1403.48 276.099H1390.66V288.183H1403.48V276.099Z" fill="white"/>
<path d="M1419.93 276.099H1407.11V288.183H1419.93V276.099Z" fill="#D6CDE4"/>
<path d="M1354.62 305.582H1341.8V317.665H1354.62V305.582Z" fill="#D6CDE4"/>
<path d="M1371.07 305.582H1358.25V317.665H1371.07V305.582Z" fill="white"/>
<path d="M1387.28 305.582H1374.46V317.665H1387.28V305.582Z" fill="white"/>
<path d="M1403.48 305.582H1390.66V317.665H1403.48V305.582Z" fill="#D6CDE4"/>
<path d="M1419.93 305.582H1407.11V317.665H1419.93V305.582Z" fill="white"/>
<path d="M1354.62 335.065H1341.8V347.148H1354.62V335.065Z" fill="white"/>
<path d="M1371.07 335.065H1358.25V347.148H1371.07V335.065Z" fill="white"/>
<path d="M1387.28 335.065H1374.46V347.148H1387.28V335.065Z" fill="white"/>
<path d="M1403.48 335.065H1390.66V347.148H1403.48V335.065Z" fill="white"/>
<path d="M1419.93 335.065H1407.11V347.148H1419.93V335.065Z" fill="white"/>
<path d="M129.657 170.736H89.502V359.232H129.657V170.736Z" fill="#B4ACBF"/>
<path d="M216.257 170.735H129.9V359.231H216.257V170.735Z" fill="#BCB4C8"/>
<path d="M111.514 184.51H103.773V193.451H111.514V184.51Z" fill="#EDE3FC"/>
<path d="M111.514 214.476H103.773V223.417H111.514V214.476Z" fill="#EDE3FC"/>
<path d="M111.514 244.442H103.773V253.383H111.514V244.442Z" fill="#EDE3FC"/>
<path d="M148.041 183.301H135.221V195.384H148.041V183.301Z" fill="white"/>
<path d="M164.248 183.301H151.428V195.384H164.248V183.301Z" fill="white"/>
<path d="M180.455 183.301H167.635V195.384H180.455V183.301Z" fill="#D6CDE4"/>
<path d="M196.903 183.301H184.082V195.384H196.903V183.301Z" fill="white"/>
<path d="M213.112 183.301H200.291V195.384H213.112V183.301Z" fill="white"/>
<path d="M148.041 213.026H135.221V225.109H148.041V213.026Z" fill="white"/>
<path d="M164.248 213.026H151.428V225.109H164.248V213.026Z" fill="#D6CDE4"/>
<path d="M180.455 213.026H167.635V225.109H180.455V213.026Z" fill="white"/>
<path d="M196.903 213.026H184.082V225.109H196.903V213.026Z" fill="white"/>
<path d="M213.112 213.026H200.291V225.109H213.112V213.026Z" fill="white"/>
<path d="M148.041 242.508H135.221V254.591H148.041V242.508Z" fill="white"/>
<path d="M164.248 242.508H151.428V254.591H164.248V242.508Z" fill="#D6CDE4"/>
<path d="M180.455 242.508H167.635V254.591H180.455V242.508Z" fill="white"/>
<path d="M196.903 242.508H184.082V254.591H196.903V242.508Z" fill="#D6CDE4"/>
<path d="M213.112 242.508H200.291V254.591H213.112V242.508Z" fill="white"/>
<path d="M111.514 277.066H103.773V286.007H111.514V277.066Z" fill="#EDE3FC"/>
<path d="M111.514 307.032H103.773V315.974H111.514V307.032Z" fill="#EDE3FC"/>
<path d="M111.514 337.24H103.773V346.181H111.514V337.24Z" fill="#EDE3FC"/>
<path d="M148.041 276.099H135.221V288.183H148.041V276.099Z" fill="#D6CDE4"/>
<path d="M164.248 276.099H151.428V288.183H164.248V276.099Z" fill="white"/>
<path d="M180.455 276.099H167.635V288.183H180.455V276.099Z" fill="white"/>
<path d="M196.903 276.099H184.082V288.183H196.903V276.099Z" fill="#D6CDE4"/>
<path d="M213.112 276.099H200.291V288.183H213.112V276.099Z" fill="white"/>
<path d="M148.041 305.582H135.221V317.665H148.041V305.582Z" fill="white"/>
<path d="M164.248 305.582H151.428V317.665H164.248V305.582Z" fill="white"/>
<path d="M180.455 305.582H167.635V317.665H180.455V305.582Z" fill="#D6CDE4"/>
<path d="M196.903 305.582H184.082V317.665H196.903V305.582Z" fill="white"/>
<path d="M213.112 305.582H200.291V317.665H213.112V305.582Z" fill="white"/>
<path d="M148.041 335.065H135.221V347.148H148.041V335.065Z" fill="white"/>
<path d="M164.248 335.065H151.428V347.148H164.248V335.065Z" fill="white"/>
<path d="M180.455 335.065H167.635V347.148H180.455V335.065Z" fill="white"/>
<path d="M196.903 335.065H184.082V347.148H196.903V335.065Z" fill="white"/>
<path d="M213.112 335.065H200.291V347.148H213.112V335.065Z" fill="white"/>
</svg>
