<svg width="1417" height="62" viewBox="0 0 1417 62" fill="none" xmlns="http://www.w3.org/2000/svg">
<path d="M1215.73 42.9967C1215.73 46.1383 1213.31 48.5549 1210.17 48.5549H1186.46C1183.32 48.5549 1180.9 46.1383 1180.9 42.9967C1180.9 39.8551 1183.32 37.4385 1186.46 37.4385H1210.17C1213.07 37.4385 1215.73 39.8551 1215.73 42.9967Z" fill="#EADFF8"/>
<path d="M458.351 20.5226C458.351 29.9474 450.852 37.4389 441.418 37.4389H97.9249C88.491 37.4389 80.9922 29.9474 80.9922 20.5226C80.9922 11.0978 88.491 3.60632 97.9249 3.60632H441.66C450.852 3.60632 458.351 11.0978 458.351 20.5226Z" fill="#EADFF8"/>
<path d="M656.465 41.0639C656.465 48.797 650.175 55.0802 642.434 55.0802H502.86C495.119 55.0802 488.83 48.797 488.83 41.0639C488.83 33.3307 495.119 27.0475 502.86 27.0475H642.434C650.175 26.8059 656.465 33.0891 656.465 41.0639Z" fill="#EADFF8"/>
<path d="M657.191 5.78107C657.191 8.68102 654.772 11.0976 651.869 11.0976H627.921C625.019 11.0976 622.6 8.68102 622.6 5.78107C622.6 2.88113 625.019 0.464478 627.921 0.464478H651.869C654.772 0.464478 657.191 2.88113 657.191 5.78107Z" fill="#EADFF8"/>
<path d="M141.709 55.0805C141.709 58.7054 138.564 61.847 134.936 61.847H114.132C110.504 61.847 107.359 58.7054 107.359 55.0805C107.359 51.4556 110.504 48.314 114.132 48.314H134.936C138.806 48.314 141.709 51.4556 141.709 55.0805Z" fill="#EADFF8"/>
<path d="M46.8877 6.74749C46.8877 9.64741 44.7106 11.8224 41.8078 11.8224H31.6482C28.7454 11.8224 26.5684 9.64741 26.5684 6.74749C26.5684 3.84756 28.7454 1.67261 31.6482 1.67261H41.8078C44.4687 1.67261 46.8877 3.84756 46.8877 6.74749Z" fill="#EADFF8"/>
<path d="M961.497 30.914C961.497 40.5805 953.514 48.5553 943.838 48.5553H755.643C745.967 48.5553 737.984 40.5805 737.984 30.914C737.984 21.2475 745.967 13.2727 755.643 13.2727H943.838C953.756 13.2727 961.497 21.2475 961.497 30.914Z" fill="#EADFF8"/>
<path d="M1032.86 37.4388C1032.86 41.3054 1029.71 44.447 1025.84 44.447H1002.86C998.99 44.447 995.846 41.3054 995.846 37.4388C995.846 33.5722 998.99 30.4305 1002.86 30.4305H1025.84C1029.71 30.4305 1032.86 33.5722 1032.86 37.4388Z" fill="#EADFF8"/>
<path d="M1299.91 18.831C1299.91 25.5975 1294.59 30.914 1287.82 30.914H1239.68C1232.91 30.914 1227.58 25.5975 1227.58 18.831C1227.58 12.0645 1232.91 6.74792 1239.68 6.74792H1287.82C1294.59 6.74792 1299.91 12.0645 1299.91 18.831Z" fill="#EADFF8"/>
<path d="M72.7704 48.555C72.7704 55.3215 67.4487 60.638 60.6756 60.638H12.5382C5.76508 60.638 0.443359 55.3215 0.443359 48.555C0.443359 41.7885 5.76508 36.4719 12.5382 36.4719H60.6756C67.2068 36.4719 72.7704 42.0301 72.7704 48.555Z" fill="#EADFF8"/>
<path d="M1417 24.5C1417 31.3396 1414.26 37 1410.96 37H1361.04C1357.74 37 1355 31.3396 1355 24.5C1355 17.6603 1357.74 12 1361.04 12H1410.96C1414.38 12 1417 17.6603 1417 24.5Z" fill="#EADFF8"/>
</svg>
