<svg width="98" height="164" viewBox="0 0 98 164" fill="none" xmlns="http://www.w3.org/2000/svg">
<path d="M23.8266 92.1088L61.8044 111.2C61.8044 111.2 60.1111 117.966 59.6273 117.966C47.2906 115.792 22.1333 108.3 16.0859 104.192C8.82901 99.6002 15.3602 87.2756 23.8266 92.1088Z" fill="#456F96"/>
<path d="M39.5501 14.5352L38.8244 18.1601L37.8568 22.0266L36.8892 26.6182L35.9216 31.2098L34.7121 37.7346L17.2955 25.4099L23.8268 0.518829L39.5501 14.5352Z" fill="#FFAE80"/>
<path d="M34.4692 31.2096C40.0328 54.1674 51.1601 53.4425 52.6114 66.2505C53.579 75.6753 43.6613 79.3002 43.6613 79.3002C40.7585 92.5916 38.5815 104.191 39.549 112.891C39.549 112.891 11.2471 107.575 9.31197 107.091C13.908 93.7999 5.68352 79.3002 5.68352 54.8924C5.68352 41.8427 17.7783 23.7181 17.7783 23.7181C17.7783 23.7181 33.7435 27.5847 34.4692 31.2096Z" fill="#FFAE80"/>
<path d="M53.3381 66.2508C53.3381 66.7341 53.3381 67.4591 53.3381 67.9424C53.0962 76.1589 43.6622 79.3005 43.6622 79.3005C43.6622 80.0255 43.6622 80.5088 43.6622 81.2338C43.6622 81.9588 43.6622 82.4421 43.6622 82.9254C43.6622 84.8587 43.4203 86.792 43.1785 88.7253C42.9366 92.5919 42.4528 95.9751 41.969 99.1167C41.4852 102.983 40.7595 106.85 40.5176 110.233C40.5176 110.716 40.5176 111.2 40.2757 111.683C40.2757 111.683 39.55 111.683 38.3405 111.441C35.6797 110.958 30.3579 110.233 25.0362 109.508C24.7943 109.508 24.3105 109.508 24.0686 109.267C17.0536 108.3 10.2805 107.333 9.55481 107.092C9.79671 106.125 10.2805 105.158 10.2805 104.192C10.5224 103.708 10.5224 103.225 10.5224 102.742C10.7643 100.567 11.0062 98.3917 10.7643 96.2168C10.7643 95.4918 10.7643 94.7668 10.7643 94.0418C10.5224 90.1752 9.5548 85.8253 8.82911 81.2338C7.86153 76.1589 6.89394 70.6007 6.41015 64.0758C6.41015 63.1092 6.16825 62.1425 6.16825 61.1759C6.16825 59.2426 5.92636 57.0676 5.92636 54.8927C5.92636 42.0846 13.909 30.2432 14.3927 29.5182C14.3927 29.5182 17.0536 30.4849 19.9564 31.4515C19.9564 31.4515 32.7769 34.8348 45.1136 51.5094C48.984 56.3426 52.6124 59.4843 53.3381 66.2508Z" fill="#5589B9"/>
<path opacity="0.4" d="M37.8583 22.026L36.8907 26.6176L35.9232 31.2092C33.7461 29.7592 30.3595 27.1009 29.392 25.651C26.4892 21.3011 25.5216 16.7095 25.2797 11.393C27.6987 15.5012 32.5366 18.8844 36.6488 21.3011C37.1326 21.7844 37.6164 21.7844 37.8583 22.026Z" fill="#FFAE80"/>
<path d="M97.1215 148.898C96.3958 153.248 94.9444 158.081 93.2511 163.639C92.7673 163.639 92.5254 163.64 92.0416 163.398C91.7997 163.398 91.5578 163.398 91.3159 163.398C89.3808 163.156 87.2037 162.673 85.2685 162.431C79.9468 161.223 74.6251 159.531 69.3034 157.356C67.3682 156.631 65.433 155.665 63.4978 154.698C60.837 153.49 58.1761 151.798 55.5153 150.348C55.5153 150.348 24.0687 150.831 11.0063 147.69C5.68456 146.482 1.81423 142.132 0.846642 136.815C-0.120945 131.499 -0.604745 127.39 1.33043 121.349C1.81422 119.415 2.78181 117.24 3.74939 114.824C5.20077 111.441 7.37783 108.057 10.2806 104.432H11.2482L24.0687 107.091L38.5825 109.991C41.7272 110.474 79.7049 119.899 92.2835 130.048C93.2511 130.773 94.2187 131.74 94.9444 132.465C95.912 133.673 96.6377 134.882 97.1215 136.09C98.3309 139.473 98.089 143.823 97.1215 148.898Z" fill="#EA4A49"/>
<path opacity="0.3" d="M53.338 67.9424C53.0961 76.1589 43.904 79.3005 43.904 79.3005C43.904 80.0254 43.904 80.5088 43.904 81.2338C43.904 81.7171 43.904 82.442 43.904 82.9254C43.904 84.8587 43.6621 86.792 43.6621 88.7253C43.1783 92.5918 42.9364 95.9751 42.4526 99.1167C41.9688 102.983 41.2431 106.85 41.0012 110.233L38.8242 109.75L24.3104 106.85L11.4899 104.192C11.248 103.708 11.0061 103.225 10.7642 102.742C11.0061 100.567 11.248 98.3917 11.0061 96.2167C11.0061 95.4918 11.0061 94.7668 11.0061 94.0418C10.7642 90.1752 9.79659 85.8253 9.0709 81.2338C8.10332 76.1589 7.13573 70.6007 6.65194 64.0758C6.65194 63.1092 6.41004 62.1425 6.41004 61.1759C6.41004 59.2426 6.16815 57.0676 6.16815 54.8927C6.16815 42.0846 14.1507 30.2432 14.6345 29.5182C6.41005 51.7511 18.0211 56.5843 30.5997 60.4509L38.8242 76.1589C44.3878 75.6756 49.7095 72.5339 53.338 67.9424Z" fill="#456F96"/>
<path opacity="0.5" d="M80.9151 123.282C80.9151 123.282 41.486 126.666 24.7951 109.266C20.1991 104.674 13.9098 105.158 11.007 104.191L23.8275 106.849L38.3413 109.749C41.486 110.233 59.1444 113.858 80.9151 123.282Z" fill="#EA4A49"/>
<path opacity="0.5" d="M92.0416 163.399C91.7997 163.399 91.5578 163.399 91.3159 163.399C89.3807 163.157 87.2037 162.673 85.2685 162.432C79.9468 161.224 74.6251 159.532 69.3033 157.357C67.3682 156.632 65.433 155.665 63.4978 154.699C60.837 153.49 58.1761 151.799 55.5152 150.349C55.5152 150.349 24.0687 150.832 11.0063 147.691C5.68456 146.482 1.81423 142.132 0.846641 136.816C-0.120945 131.499 -0.604745 127.391 1.33043 121.349C6.41025 138.024 10.0387 153.49 60.1113 140.682C70.029 155.665 92.0416 163.399 92.0416 163.399Z" fill="#EA4A49"/>
</svg>
