<svg width="51" height="49" viewBox="0 0 51 49" fill="none" xmlns="http://www.w3.org/2000/svg">
<path d="M37.5016 10.6355C36.534 7.97725 36.0502 4.83563 33.8732 3.144C39.9206 2.90234 45.7261 7.25225 47.6613 12.8105C48.387 15.2271 48.6289 17.8853 50.0802 19.8186C44.5166 19.577 39.4368 15.9521 37.5016 10.6355Z" fill="#21201D"/>
<path d="M47.6627 29.0017C45.7276 26.3435 44.5181 24.8935 44.0343 22.7186C50.3236 -8.21409 -13.0533 1.93568 10.8945 34.56L16.9419 33.835C20.0865 41.5681 25.1664 46.4014 35.0841 48.093C38.4707 47.8514 41.3734 48.093 43.7924 45.6764C45.2438 43.5014 45.9695 40.1182 45.7276 35.0433C45.7276 34.0766 46.2114 33.11 47.1789 32.6267C47.9046 31.9017 48.8722 30.6934 47.6627 29.0017Z" fill="#FFAE80"/>
<path d="M13.3135 48.0928C11.3783 45.4345 0.25107 37.943 0.00917297 23.2017C-0.716517 -7.24765 41.8573 -3.38109 41.8573 10.1519C41.8573 10.1519 41.6154 7.97701 35.3261 18.3684C31.6976 24.41 25.4083 25.135 23.4732 33.3514C19.8447 48.0928 13.3135 48.0928 13.3135 48.0928Z" fill="#21201D"/>
<path d="M26.6178 30.21C27.3435 33.3516 27.8273 35.2849 25.8921 35.7682C23.715 36.2516 20.0866 34.0766 19.3609 30.935C18.6352 27.7934 20.3285 25.6184 22.5055 25.1351C24.6826 24.6518 25.8921 27.0684 26.6178 30.21Z" fill="#FFAE80"/>
<path d="M25.8904 34.8016C26.1323 35.5266 25.6485 36.4932 24.6809 36.7348C23.9552 36.9765 22.9876 36.4932 22.7457 35.5266C22.5038 34.8016 22.9876 33.835 23.9552 33.5933C24.9228 33.5933 25.6485 34.0766 25.8904 34.8016Z" fill="white"/>
</svg>
