<svg width="58" height="109" viewBox="0 0 58 109" fill="none" xmlns="http://www.w3.org/2000/svg">
<path d="M57.5743 8.60716C57.3324 10.0571 56.8486 11.9904 55.881 13.9237C55.881 13.9237 55.1554 15.3737 53.704 17.5486C53.4621 18.032 52.9783 18.7569 52.4945 19.4819C50.8012 22.3818 48.3822 26.2484 45.9633 30.3567C43.7862 33.9816 41.6091 37.8482 39.1902 41.9564C35.3198 48.7229 31.2076 55.9728 27.821 62.4976C24.1926 69.5058 21.2898 75.3056 20.0803 79.1722C18.6289 83.7638 22.4993 94.3968 23.4669 96.8134C23.7088 97.0551 23.7088 97.2968 23.7088 97.2968C25.1601 99.4718 27.0953 101.405 29.0305 103.338C31.9333 106.48 34.1103 108.655 30.9657 108.897L28.5467 107.93L24.1926 106.238L12.8234 101.888C10.8882 101.163 9.43686 99.4718 8.95307 97.5385L7.25978 91.2553L4.59892 98.5051L0.486679 96.8134C4.11513 87.6303 0.486668 84.2471 9.67875 74.8224C12.3396 72.1641 15.7262 52.1062 19.8384 36.6399C21.2898 30.84 22.9831 25.7651 24.6764 22.3819C26.3696 18.9986 28.0629 16.3403 29.9981 13.6821C30.24 13.1987 30.7238 12.7154 30.9657 12.2321C33.6265 8.60716 36.2874 5.70723 37.9807 3.77394C39.674 2.08231 40.6415 1.35733 40.6415 1.35733C49.1079 -1.54261 58.7838 -0.0926386 57.5743 8.60716Z" fill="#F0A073"/>
<path d="M9.19198 74.8226C9.19198 74.8226 9.67578 74.8225 9.91768 75.0642C12.3366 76.5141 13.788 79.1725 14.0299 81.8308L14.7556 88.8389C14.9975 91.9805 17.1746 94.6388 20.0773 95.6054L23.4639 96.8137C23.4639 97.0554 23.4639 97.0554 23.4639 97.0554C27.5761 102.855 35.5587 108.172 30.4789 108.414L12.3366 101.405C10.4015 100.68 8.95008 98.9887 8.46629 97.0554L6.77302 90.7722L4.11216 98.0221L-9.15527e-05 96.3305C3.62836 87.6306 -8.40553e-05 84.0057 9.19198 74.8226Z" fill="#C21E1D"/>
</svg>
