<svg width="36" height="111" viewBox="0 0 36 111" fill="none" xmlns="http://www.w3.org/2000/svg">
<path d="M33.4272 110.355L14.0755 107.939C12.1403 107.697 10.2051 106.489 9.23752 104.797L6.09286 99.2391L5.85097 101.414L5.36719 106.006V106.972L1.01304 106.489C1.01304 105.764 1.25493 105.039 1.25493 104.314C1.49683 100.447 0.771149 97.789 0.771149 94.8891C0.771149 91.7475 1.25494 88.3642 4.64149 82.806C5.85097 80.6311 5.60908 71.2063 5.36719 60.5732C5.12529 54.0483 4.88338 47.0401 5.12527 40.9986C5.12527 35.9237 5.60907 31.5738 6.33476 28.4322C6.81855 26.7406 7.30236 24.8073 7.78615 23.3574C8.51184 21.1824 9.23751 19.2491 9.9632 17.3158C10.447 16.1075 10.9308 14.8992 11.4146 13.6909C12.6241 11.0326 13.8336 9.09931 14.5592 7.40768C15.7687 5.47439 16.4944 4.26604 16.4944 4.26604C24.477 -0.808855 34.1529 -2.01716 35.1204 6.68265C35.3623 8.13262 35.1204 10.066 34.8785 12.2409C34.8785 12.2409 34.6366 13.4492 33.911 15.1408C33.6691 16.1075 33.1853 17.0741 32.9434 18.2824C31.9758 21.1824 31.0082 25.049 29.5568 29.3989C28.5892 32.2988 27.6216 35.6821 26.896 39.0653C22.058 55.9817 16.7363 76.0395 16.2525 84.256C15.7687 89.8142 24.2351 101.172 24.2351 101.172C29.3149 105.764 38.2651 108.906 33.4272 110.355Z" fill="#FFAE80"/>
<path d="M4.39966 82.8052C4.39966 82.8052 4.88345 82.8052 5.36725 83.0469C8.02811 84.0135 9.96327 85.9468 10.9309 88.6051L13.3498 95.3715C14.3174 98.2715 16.9783 100.446 20.1229 100.688L23.7514 100.93C23.7514 101.171 23.9933 101.171 23.9933 101.171C29.315 105.763 38.5071 108.904 33.6692 110.596L14.3174 108.18C12.3822 107.938 10.4471 106.73 9.47948 105.038L6.33482 99.4798L5.36725 107.213L1.0131 106.73C2.22258 96.5799 -2.13155 94.1632 4.39966 82.8052Z" fill="#EA4A49"/>
</svg>
