<svg width="192" height="96" viewBox="0 0 192 96" fill="none" xmlns="http://www.w3.org/2000/svg">
<path d="M63.8609 10.9502V84.6568C63.8609 90.4567 59.023 95.2899 53.2175 95.2899H10.6437C4.83816 95.2899 0.000228882 90.4567 0.000228882 84.6568V10.9502C0.000228882 5.15034 4.83816 0.317135 10.6437 0.317135H53.2175C59.023 0.317135 63.8609 4.90868 63.8609 10.9502Z" fill="#F9B233"/>
<path d="M63.6188 19.1667H0V24.9664H63.6188V19.1667Z" fill="#5E4A4C"/>
<path d="M16.9341 0.316895H13.0638V95.2897H16.9341V0.316895Z" fill="#5E4A4C"/>
<path d="M51.5252 0.316895H47.6549V88.0398H51.5252V0.316895Z" fill="#5E4A4C"/>
<path d="M181.421 95.0566H85.6295C80.7916 95.0566 76.9212 91.19 76.9212 86.3567V26.4248C76.9212 21.5916 80.7916 17.725 85.6295 17.725H181.421C186.258 17.725 190.129 21.5916 190.129 26.4248V86.3567C190.371 91.19 186.5 95.0566 181.421 95.0566Z" fill="black"/>
<path d="M145.622 12.6495C137.882 9.50797 129.173 9.50797 121.433 12.6495C119.981 13.1329 118.53 12.6495 117.804 11.4412C117.078 10.2329 117.804 8.54133 119.497 7.81635C128.448 4.19146 138.607 4.19146 147.557 7.81635C149.251 8.54133 149.976 10.2329 149.251 11.4412C148.525 12.6495 147.074 13.1329 145.622 12.6495Z" fill="black"/>
<path d="M120.704 17.4828H118.769V10.9578C118.769 10.4745 119.253 9.99115 119.737 9.99115C120.22 9.99115 120.704 10.4745 120.704 10.9578V17.4828V17.4828Z" fill="#DADADA"/>
<path d="M148.524 17.4828H146.589V10.9578C146.589 10.4745 147.073 9.99115 147.557 9.99115C148.04 9.99115 148.524 10.4745 148.524 10.9578V17.4828V17.4828Z" fill="#DADADA"/>
<path d="M89.0166 28.8412C89.0166 29.3245 88.5328 29.8078 88.049 29.8078H76.9217C76.4379 29.8078 75.9541 29.3245 75.9541 28.8412V25.2163C75.9541 20.6247 79.8245 16.7582 84.4205 16.7582H88.049C88.5328 16.7582 89.0166 17.2415 89.0166 17.7248V28.8412Z" fill="#DADADA"/>
<path d="M178.036 28.8412C178.036 29.3245 178.52 29.8078 179.004 29.8078H190.131C190.615 29.8078 191.098 29.3245 191.098 28.8412V25.2163C191.098 20.6247 187.228 16.7582 182.632 16.7582H179.004C178.52 16.7582 178.036 17.2415 178.036 17.7248V28.8412Z" fill="#DADADA"/>
<path d="M178.036 83.698C178.036 83.2147 178.52 82.7314 179.004 82.7314H190.131C190.615 82.7314 191.098 83.2147 191.098 83.698V87.3229C191.098 91.9145 187.228 95.781 182.632 95.781H179.004C178.52 95.781 178.036 95.2977 178.036 94.8144V83.698Z" fill="#DADADA"/>
<path d="M89.0166 83.698C89.0166 83.2147 88.5328 82.7314 88.049 82.7314H76.9217C76.4379 82.7314 75.9541 83.2147 75.9541 83.698V87.3229C75.9541 91.9145 79.8245 95.781 84.4205 95.781H88.049C88.5328 95.781 89.0166 95.2977 89.0166 94.8144V83.698Z" fill="#DADADA"/>
<path d="M94.0969 41.1572H71.3586V35.8406C71.3586 33.6657 69.6653 31.974 67.4883 31.974H51.2812C49.1041 31.974 47.4108 33.6657 47.4108 35.8406V41.1572H24.6726C19.3509 41.1572 15.2386 45.2654 15.2386 50.582V85.6229C15.2386 90.9395 19.3509 95.0477 24.6726 95.0477H94.3388C99.6605 95.0477 103.773 90.9395 103.773 85.6229V50.582C103.531 45.5071 99.4186 41.1572 94.0969 41.1572ZM51.0393 35.8406C51.0393 35.5989 51.2812 35.5989 51.2812 35.5989H67.4883C67.7302 35.5989 67.7302 35.8406 67.7302 35.8406V41.1572H51.0393V35.8406V35.8406Z" fill="#EA4A49"/>
<path d="M39.6698 41.1575H31.9291V95.0478H39.6698V41.1575Z" fill="#FDFDFD"/>
<path d="M86.84 41.1575H79.0993V95.0478H86.84V41.1575Z" fill="#FDFDFD"/>
<path d="M40.8798 57.1073H30.7202V47.6825H40.8798V57.1073ZM33.1391 54.6907H38.4608V50.0991H33.1391V54.6907Z" fill="#231F20"/>
<path d="M88.05 57.1073H77.8904V47.6825H88.05V57.1073ZM80.3093 54.6907H85.631V50.0991H80.3093V54.6907Z" fill="#231F20"/>
</svg>
