<svg width="88" height="99" viewBox="0 0 88 99" fill="none" xmlns="http://www.w3.org/2000/svg">
<path d="M59.4936 30.9123L60.2193 38.4038L60.945 46.8619L61.4288 52.1785C66.9924 58.22 74.0073 47.8286 78.3614 43.962L78.8451 29.704L59.4936 30.9123Z" fill="#FFAE80"/>
<path opacity="0.4" d="M60.2168 38.4039L60.9425 46.8621C66.2642 44.6872 69.8926 40.5789 71.1021 36.229L60.2168 38.4039Z" fill="#FFAE80"/>
<path d="M85.1336 21.0049C84.166 24.6298 80.5376 28.2547 79.57 30.913C78.8443 33.3296 67.4752 38.6461 63.6048 40.0961C60.2183 41.3044 55.6222 40.8211 53.9289 38.1628C52.4776 35.9879 52.7195 33.8129 54.1709 25.8381H52.4776C51.51 25.3548 51.0262 24.1464 51.7519 23.1798L52.9614 21.0049L54.4127 18.8299L54.8965 18.1049C54.8965 18.1049 54.6546 17.1383 54.4127 15.93C54.4127 15.6883 54.4127 15.4466 54.6546 15.4466C54.8965 14.48 55.1384 13.755 55.3803 12.7884C56.106 10.8551 57.0736 9.16347 58.0411 7.95517C61.4277 3.36361 66.5075 1.91361 71.5874 2.63859C77.3929 3.60524 87.5525 4.5719 85.1336 21.0049Z" fill="#FFAE80"/>
<path opacity="0.4" d="M71.3458 14.7215L70.8621 17.1381L52.9618 21.2463L54.4131 19.0714L54.897 18.3464C54.897 18.3464 54.655 17.3798 54.4131 16.1714C54.4131 15.9298 54.4132 15.6881 54.655 15.6881L71.3458 14.7215Z" fill="#FFAE80"/>
<path d="M78.6032 34.5378C67.234 35.0211 75.7005 23.4214 75.7005 23.4214C75.7005 23.4214 74.9747 20.5215 73.7652 21.4881C72.072 21.2465 71.5882 20.5215 69.8949 20.0382C71.8301 12.0634 74.9747 3.84692 61.6703 4.33024C62.1541 1.43031 66.9921 -0.0196713 73.0396 0.946971C81.2641 2.15527 87.5535 8.19679 86.8278 16.6549C86.5859 21.2465 86.5859 24.1464 78.6032 34.5378Z" fill="#2F2E29"/>
<path d="M84.4082 76.3449C82.9568 85.0447 83.1987 92.053 82.9568 98.5778H45.2209C45.2209 97.8528 45.2209 97.1278 45.2209 96.6445C45.2209 93.5029 45.4628 90.603 45.4628 88.1864C45.4628 87.9447 45.4628 87.4614 45.4628 87.2197C45.4628 85.7697 45.4628 84.3198 45.7047 83.3531C45.7047 81.6615 45.9466 80.6949 45.9466 80.6949C45.9466 80.4532 45.9466 80.2115 45.9466 79.7282C46.4304 75.8616 47.398 71.995 48.6074 68.6118C52.9616 55.3204 60.9442 46.8622 60.9442 46.8622C60.9442 46.8622 77.877 41.0624 78.3608 41.5457C86.1015 46.6206 87.3109 54.1121 87.069 56.7704C86.5852 65.2285 85.3758 70.0617 84.4082 76.3449Z" fill="#5E4A4C"/>
<path d="M77.3905 24.8713C76.9067 27.5295 74.2459 29.9461 72.5526 29.7045C70.8594 29.4628 71.3432 27.2879 71.827 24.8713C72.0689 23.1796 72.0689 20.763 74.004 20.5213C75.6972 20.2797 77.8742 21.2463 77.3905 24.8713Z" fill="#FFAE80"/>
<path opacity="0.5" d="M68.443 83.3528L63.1212 98.8191H45.2209C45.2209 98.0941 45.2209 97.3691 45.2209 96.8858C45.2209 93.7442 45.4628 90.8443 45.4628 88.4277C45.4628 88.186 45.4628 87.7027 45.4628 87.461C45.4628 86.0111 45.4628 84.5611 45.7047 83.5944C45.7047 81.9028 45.9466 80.9362 45.9466 80.9362C45.9466 80.6945 45.9466 80.4528 45.9466 79.9695C46.4304 76.1029 47.398 72.2364 48.6074 68.8531L56.1063 58.945L73.5228 68.6114L71.1039 75.6196L68.443 83.3528Z" fill="#5589B9"/>
<path d="M71.3473 71.7531L37.7237 90.1194L25.8707 74.1698L60.9458 53.8702C65.5418 51.2119 74.9758 49.037 78.3624 55.0785C78.3624 55.3202 83.9259 65.2283 71.3473 71.7531Z" fill="#5E4A4C"/>
<path d="M48.8488 89.3944L48.365 89.8777C48.1231 90.1194 48.1232 90.1194 47.8813 90.1194C47.3975 90.3611 46.6718 90.8444 46.188 91.086C42.5595 92.536 38.4472 92.0527 35.0607 89.8777L33.3675 88.9111L9.90342 76.3447L0.711365 71.9948L2.16276 59.6701L17.6442 64.745L38.9311 71.5115L42.0758 72.4781L44.9785 73.4447C47.6393 74.1697 49.8164 76.103 51.0259 78.278C51.9935 80.2113 52.4773 82.6279 51.7516 85.0445C51.0259 86.9778 50.0583 88.4278 48.8488 89.3944Z" fill="#5E4A4C"/>
</svg>
