<svg width="887" height="267" viewBox="0 0 887 267" fill="none" xmlns="http://www.w3.org/2000/svg">
<path d="M345.248 101.762L330.492 104.662C320.332 98.8619 326.138 102.245 318.881 97.8952L296.385 106.353L313.801 135.836H364.841L360.487 124.961L351.537 124.72L348.393 121.095L349.36 108.045L345.248 101.762Z" fill="black"/>
<path d="M446.118 139.461H481.193L491.111 87.7456H473.211C463.293 87.7456 454.585 94.7538 452.891 104.662L446.118 139.461Z" fill="black"/>
<path d="M365.568 113.846L360.246 105.146L351.296 101.762L356.134 108.771L351.054 110.704L347.184 104.662L347.426 117.229L354.441 123.27L364.359 124.962L365.568 113.846Z" fill="#FFAE80"/>
<path d="M360.487 115.537L356.132 118.437L339.925 93.7874C339.2 92.5791 339.441 90.8875 340.651 90.1625C341.86 89.4375 343.554 89.6792 344.279 90.8875L360.487 115.537Z" fill="black"/>
<path d="M483.613 0.506348H493.772C495.708 0.506348 497.401 1.9563 497.643 3.88959L501.997 37.7221H475.146L479.501 3.88959C479.984 1.9563 481.678 0.506348 483.613 0.506348Z" fill="#F9B233"/>
<path d="M872.824 173.777L871.131 174.019C869.438 174.26 867.986 171.602 867.502 167.977L865.325 146.953C864.842 143.086 866.051 139.703 867.986 139.461H869.196C870.889 139.461 872.341 141.878 872.824 145.261L875.485 166.044C875.969 169.911 874.76 173.535 872.824 173.777Z" fill="#E94E1B"/>
<path d="M16.0267 180.302L9.97929 179.819C6.10894 179.577 2.96427 176.194 2.72238 172.086L0.0614916 143.086C-0.422303 138.978 1.99668 135.111 5.62513 134.386L9.4955 133.42L16.0267 180.302Z" fill="#FFC55E"/>
<path d="M18.4459 181.752L9.7377 181.027L4.41602 131.97L15.3013 131.728L18.4459 181.752Z" fill="black"/>
<path d="M17.2367 210.51L7.56079 210.751C5.14181 210.751 2.96472 209.06 2.48093 206.643L0.0619526 190.693C-0.421842 187.794 1.99713 185.135 4.8999 185.135H17.9624L20.8651 206.16C21.3489 208.335 19.6557 210.51 17.2367 210.51Z" fill="#DAD1D1"/>
<path d="M872.099 177.644L868.228 141.878C867.502 134.387 861.697 128.104 854.198 126.654L698.659 94.271C693.579 93.3044 688.741 90.6461 684.871 87.0212L653.908 56.8135C639.394 42.5555 619.8 34.5807 599.239 34.5807H389.273C383.226 34.5807 377.42 36.514 372.582 40.3805L301.223 95.2377C293.966 100.796 285.499 103.937 276.307 104.421L33.2014 116.504C18.4457 117.229 7.56037 119.887 9.49555 134.628L15.543 192.386C16.9943 203.985 26.1864 213.168 37.7974 214.618L91.7404 221.627H732.282L743.893 220.902L748.731 220.66L841.619 214.135C860.245 212.443 874.034 196.01 872.099 177.644ZM472.002 105.871H313.559L382.258 52.9469C384.193 51.497 386.612 50.5303 389.273 50.5303H475.872L472.002 105.871Z" fill="#F9B233"/>
<path opacity="0.75" d="M261.31 112.396L33.4435 123.754C28.3637 123.995 14.3336 124.479 16.2688 136.078L22.3162 191.419C18.4459 128.104 25.9447 131.729 52.7952 129.795L261.31 112.396Z" fill="#F6F6F6"/>
<path opacity="0.75" d="M864.842 178.369L860.972 142.603C860.488 138.012 857.101 134.387 852.747 133.42L698.417 99.8292C697.934 99.8292 695.515 101.038 695.515 101.038C845.732 136.078 852.747 133.42 864.842 178.369Z" fill="#F6F6F6"/>
<path d="M478.291 143.086L478.533 139.22L485.306 41.8303H389.031C384.677 41.8303 380.081 43.2803 376.695 45.9386L305.335 100.796C302.19 103.212 299.046 105.146 295.659 106.837L287.677 138.978L285.983 145.503L291.547 185.377L295.659 214.135H485.548L482.645 185.377L478.291 143.086ZM472.002 105.871H313.56L382.258 52.9467C384.194 51.4967 386.612 50.5301 389.273 50.5301H475.872L472.002 105.871Z" fill="white"/>
<path d="M389.274 48.8381C386.371 48.8381 383.468 49.8048 381.291 51.4964L309.932 106.354C309.448 106.837 308.964 107.079 308.238 107.562H473.696L477.808 48.8381H389.274V48.8381ZM472.002 105.87H313.56L382.259 52.9464C384.194 51.4964 386.613 50.5298 389.274 50.5298H475.873L472.002 105.87Z" fill="#F9B233"/>
<path d="M485.548 143.086L489.902 185.619L492.805 214.376H605.045C606.012 203.985 609.157 194.319 613.995 185.619C623.187 168.461 638.91 155.411 658.262 149.611V139.22L658.504 115.537C658.504 109.737 656.811 104.179 653.424 99.5873L620.042 52.7051C615.204 46.1802 607.706 41.8303 599.481 41.8303H492.563L485.79 139.22L485.548 143.086Z" fill="white"/>
<path d="M613.996 56.813C610.367 51.9797 605.045 49.0798 599.24 48.8381H499.095L494.982 107.803L649.554 107.562L613.996 56.813Z" fill="#1D1715"/>
<path d="M468.858 117.954H437.17V128.104H468.858V117.954Z" fill="black"/>
<path d="M649.796 117.954H618.107V128.104H649.796V117.954Z" fill="black"/>
<path d="M871.858 177.402L872.342 181.994H852.99C843.072 181.994 835.09 189.969 835.09 199.877V200.118L877.18 198.185C882.018 197.943 886.372 194.318 885.888 189.485C885.888 188.519 885.646 187.552 885.646 186.585C885.162 181.51 880.808 177.644 875.728 177.644H871.858V177.402Z" fill="#DAD1D1"/>
<path d="M35.1381 206.16H9.73896C7.56189 206.16 5.62673 204.711 5.14294 202.536L3.69154 195.527C2.96585 192.627 5.38484 189.728 8.2876 189.728H33.6868C35.8638 189.728 37.799 191.178 38.2828 193.352L39.7342 200.361C40.4599 203.261 38.2828 206.16 35.1381 206.16Z" fill="#DAD1D1"/>
<path d="M233.735 221.385H106.014L109.642 201.327C110.852 194.802 113.512 189.002 117.141 183.927C120.769 179.094 125.365 175.227 130.687 172.569C136.251 169.669 142.54 167.977 149.313 167.977H187.775C196.483 167.977 204.466 170.636 211.239 174.986C213.416 176.435 215.351 177.885 217.044 179.577C223.817 185.86 228.655 194.318 230.59 203.985L233.735 221.385Z" fill="black"/>
<path d="M748.732 220.177L743.894 220.418L739.057 220.66L732.041 221.143H621.253L624.156 204.469L624.881 201.085C627.058 188.519 635.041 178.127 645.684 172.569C650.522 169.911 656.086 168.219 661.892 167.978C662.617 167.978 663.585 167.978 664.31 167.978H702.772C711.238 167.978 719.221 170.394 725.994 174.744C736.154 181.027 743.411 191.419 745.588 203.985L748.732 220.177Z" fill="black"/>
<g opacity="0.75">
<path opacity="0.75" d="M561.505 51.4967L519.899 106.112H552.797L594.645 51.4967H561.505Z" fill="white"/>
<path opacity="0.75" d="M546.506 51.497L505.384 106.112H515.785L557.15 51.497H546.506Z" fill="white"/>
</g>
<path d="M204.949 210.993C204.949 230.326 189.225 246.034 169.874 246.034C150.522 246.034 134.799 230.326 134.799 210.993C134.799 191.66 150.522 175.952 169.874 175.952C189.225 176.194 204.949 191.66 204.949 210.993Z" fill="#DAD1D1"/>
<path d="M211.237 174.986C204.464 170.636 196.239 167.977 187.773 167.977H149.311C142.538 167.977 136.249 169.669 130.685 172.569C121.009 182.477 114.962 196.01 114.962 210.993C114.962 214.618 115.204 218.001 115.929 221.384C120.767 246.759 143.022 265.85 169.872 266.092C196.723 266.092 218.977 247.001 223.815 221.384C224.541 218.001 224.783 214.618 224.783 211.235C224.783 197.46 219.703 184.652 211.237 174.986ZM137.7 221.384C136.733 218.001 136.007 214.618 136.007 210.993C136.007 192.385 151.246 177.16 169.872 177.16C188.498 177.16 203.738 192.385 203.738 210.993C203.738 214.618 203.254 218.001 202.045 221.143C197.69 234.676 184.87 244.584 169.872 244.584C154.633 244.826 142.054 234.918 137.7 221.384Z" fill="black"/>
<path d="M195.514 210.993C195.514 225.009 184.144 236.609 169.873 236.609C155.843 236.609 144.232 225.251 144.232 210.993C144.232 196.976 155.601 185.377 169.873 185.377C183.903 185.618 195.514 196.976 195.514 210.993Z" fill="white"/>
<path d="M185.353 210.993C185.353 219.451 178.338 226.46 169.872 226.46C161.406 226.46 154.391 219.451 154.391 210.993C154.391 202.535 161.164 195.527 169.872 195.527C178.338 195.769 185.353 202.535 185.353 210.993Z" fill="#DAD1D1"/>
<path opacity="0.5" d="M156.568 183.444C151.246 186.102 146.65 190.21 143.505 195.285L169.872 210.993L156.568 183.444Z" fill="white"/>
<path opacity="0.5" d="M169.871 210.993L183.418 239.026C188.739 236.368 193.335 232.259 196.48 226.943L169.871 210.993Z" fill="white"/>
<path d="M720.189 210.993C720.189 230.326 704.466 246.034 685.114 246.034C665.762 246.034 650.039 230.326 650.039 210.993C650.039 191.66 665.762 175.952 685.114 175.952C704.466 176.194 720.189 191.66 720.189 210.993Z" fill="#DAD1D1"/>
<path d="M726.236 174.986C719.463 170.636 711.48 168.219 703.014 168.219H664.552C657.779 168.219 651.49 169.911 645.684 172.811C636.009 182.719 630.203 196.252 630.203 210.993C630.203 214.618 630.445 218.001 631.171 221.385C636.009 246.759 658.263 265.85 685.114 266.092C712.206 266.092 734.46 246.759 739.298 220.901C739.782 217.76 740.266 214.377 740.266 211.235C740.024 197.219 734.944 184.652 726.236 174.986ZM652.941 221.385C651.974 218.001 651.248 214.618 651.248 210.993C651.248 192.385 666.488 177.161 685.114 177.161C703.74 177.161 718.979 192.385 718.979 210.993C718.979 214.618 718.495 218.001 717.286 221.143C712.932 234.676 700.111 244.584 685.114 244.584C669.874 244.826 657.295 234.918 652.941 221.385Z" fill="black"/>
<path d="M710.513 210.993C710.513 225.01 699.144 236.609 684.872 236.609C670.842 236.609 659.231 225.251 659.231 210.993C659.231 196.977 670.6 185.377 684.872 185.377C699.144 185.619 710.513 196.977 710.513 210.993Z" fill="white"/>
<path d="M700.354 210.993C700.354 219.451 693.339 226.46 684.873 226.46C676.406 226.46 669.391 219.451 669.391 210.993C669.391 202.535 676.406 195.527 684.873 195.527C693.581 195.769 700.354 202.535 700.354 210.993Z" fill="#DAD1D1"/>
<path opacity="0.5" d="M671.808 183.444C666.486 186.102 661.89 190.211 658.745 195.286L685.112 210.994L671.808 183.444Z" fill="white"/>
<path opacity="0.5" d="M685.114 210.993L698.66 239.026C703.982 236.368 708.578 232.26 711.722 226.943L685.114 210.993Z" fill="white"/>
<path d="M485.79 138.978L485.548 142.845L489.902 185.377H613.753C622.945 168.219 638.669 155.17 658.021 149.37V138.978H485.79V138.978Z" fill="white"/>
<path d="M294.449 145.503L300.013 185.619H475.388L471.034 143.087L471.276 138.979H296.143L294.449 145.503Z" fill="#F9B233"/>
<path d="M424.592 146.953H407.659V163.87H424.592V146.953Z" fill="black"/>
<path d="M407.658 163.87H390.726V180.786H407.658V163.87Z" fill="black"/>
<path d="M390.968 146.953H374.035V163.87H390.968V146.953Z" fill="black"/>
<path d="M374.033 163.87H357.1V180.786H374.033V163.87Z" fill="black"/>
<path d="M357.103 146.953H340.17V163.869H357.103V146.953Z" fill="black"/>
<path opacity="0.3" d="M117.138 183.927C113.268 188.76 110.607 194.801 109.64 201.326L106.011 221.384H91.4973L37.5545 214.376C31.2652 213.651 25.7016 210.509 21.5893 205.918H21.1055C21.3474 208.334 19.6542 210.268 17.2352 210.509L7.55934 210.751C5.14038 210.751 2.9633 209.059 2.47951 206.643L0.0605469 190.693C0.0605469 190.21 0.0605469 189.726 0.0605469 189.243L117.138 183.927Z" fill="#F9B233"/>
<path opacity="0.3" d="M661.891 168.219C656.085 168.461 650.522 170.153 645.684 172.811C635.04 178.369 627.058 188.761 624.881 201.327L621.252 221.385H233.734L230.589 203.985C228.896 194.319 224.058 185.861 217.043 179.577L661.649 160.245L661.891 168.219Z" fill="#F9B233"/>
<path opacity="0.3" d="M885.886 189.485C886.128 194.319 881.774 197.944 877.178 198.185L867.26 198.669C861.939 207.127 852.746 213.168 841.861 213.893L748.973 220.418L746.07 204.227C743.893 191.902 736.636 181.511 726.476 174.986C719.703 170.636 711.721 168.219 703.254 168.219H664.793C663.825 168.219 663.099 168.219 662.374 168.219L662.132 160.244L873.791 151.061L875.727 165.803C876.21 169.911 875.001 173.536 873.308 173.777H872.098L872.582 177.402H876.21C881.29 177.402 885.644 181.269 886.128 186.344C885.644 187.31 885.886 188.519 885.886 189.485Z" fill="#F9B233"/>
<path d="M473.696 109.737H308.239C307.514 109.737 306.788 109.254 306.788 108.529C306.546 107.804 306.788 107.079 307.514 106.596L308.239 106.112C308.481 105.871 308.965 105.629 309.207 105.387L380.566 50.53C383.227 48.5967 386.372 47.3884 389.517 47.3884H478.051C478.534 47.3884 479.018 47.6301 479.26 47.8718C479.502 48.1134 479.744 48.5968 479.744 49.0801L475.632 107.804C475.148 109.254 474.422 109.737 473.696 109.737ZM313.077 106.596H472.003L475.874 51.0134H389.033C386.372 51.0134 383.953 51.98 382.018 53.43L313.077 106.596Z" fill="#F9B233"/>
<path d="M332.669 84.8458L331.459 85.0875C327.589 85.5708 324.444 88.4707 323.477 92.0957L322.025 97.6539L312.35 106.595L313.317 109.012L323.235 109.979C325.654 113.604 330.008 115.778 334.604 115.053L336.297 114.812L332.669 84.8458Z" fill="#F9B233"/>
</svg>
