<svg width="1400" height="359" viewBox="0 0 1400 359" fill="none" xmlns="http://www.w3.org/2000/svg">
<path d="M1490.15 358.384V195.504H1478.78V64.0402H1427.74V110.681H1424.35V116.239H1420.72V122.039H1415.16L1403.31 132.914V148.138H1395.81V41.8074H1350.09V157.805L1318.4 158.046V129.772H1304.13V124.456H1302.68V71.7734H1263.01V71.0484H1261.8V54.1321L1259.38 51.4739H1218.01L1215.6 54.1321V82.4065H1214.39V115.272H1215.6V145.48L1211.73 142.58L1196.24 131.705L1191.89 134.847V132.672L1189.95 134.122V136.055L1182.7 141.13L1175.44 136.055V134.122L1173.51 132.672V134.847L1169.39 131.705L1153.67 142.58L1149.8 145.48V86.0314L1147.62 83.3732H1106.02L1103.84 86.0314V102.948H1102.63V103.914H1062.96V124.456H1061.51V129.772H1047.24V159.255L1030.06 149.105L1015.31 157.805V80.7149H969.587V148.138H962.088V132.914L950.235 122.039H944.671V116.239H941.043V110.681H937.898V95.4562H915.402V134.605H877.908V194.537H843.559V181.246H829.77V194.537H820.578V170.13H795.179V210.004H768.329V122.522H739.785V195.021H715.111V166.263H700.114V94.4896H653.428V195.021H630.448V155.388L597.792 196.471V225.953H571.183V148.138H530.786V106.814H501.275V149.588H485.552V52.4405H444.429V144.997H405V185.596H385.89V213.629H355.653V126.389H318.643V163.605H301.227V24.8911H268.57V66.9402L251.396 84.3398V139.439H222.852V163.605H174.473V52.4405H136.253V116.964H98.5172V74.4317H73.6019V0H26.674V163.605H1.27482V73.9484H-49.7653V199.612H-95V358.384H1490.15Z" fill="#F4EBFF"/>
</svg>
