<svg width="1538" height="208" viewBox="0 0 1538 208" fill="none" xmlns="http://www.w3.org/2000/svg">
<path d="M1517.07 46.2845L1514.65 47.9761V83.9837L1510.78 82.292L1495.3 75.7672L1490.94 77.7004V76.2505L1489.01 77.2171V78.4254L1481.75 81.567L1474.49 78.4254V77.2171L1472.56 76.2505V77.7004L1468.2 75.7672L1452.72 82.292L1448.85 83.9837V65.6174H1450.06V45.8012H1448.85V28.4016L1446.43 26.7099H1405.07L1402.65 28.4016V38.793H1401.44V39.2763H1361.77V71.1756H1360.32V74.3172H1346.05V91.4752L1314.12 91.2335V0.852173H1268.4V85.192H1260.9V76.0088L1249.05 69.484H1243.72V65.8591H1240.1V62.7175H1236.71V34.4431H1185.67V113.95H1167.77V88.8169L1168.74 88.3336C1168.25 88.0919 1167.77 87.8502 1167.29 87.3669C1166.56 87.1252 1166.08 86.6419 1165.59 86.4003C1161.48 84.467 1156.64 83.2587 1151.56 83.017C1151.56 83.017 1151.32 83.017 1151.08 83.017C1150.84 83.017 1150.84 83.017 1150.59 83.017C1149.63 83.017 1148.66 83.017 1147.69 83.017C1139.47 83.017 1131.97 84.9503 1126.65 88.0919H1127.13V89.5419V113.708L1118.42 118.3L1116.73 78.6671H1108.99V69.0007H1105.36V67.0674H1101.97V66.3424H1073.91V67.0674H1070.53V69.0007H1067.14V100.175H1036.66V99.45H1034.73V100.175H1025.78L1019.49 104.767V40.243H985.863V91.2335H954.417L952.482 92.2001V116.608C936.758 110.566 919.826 109.6 901.683 116.608C901.683 116.608 901.683 116.608 901.683 116.366C901.683 90.5085 901.683 80.3587 901.683 79.1504L899.748 78.1838H867.576L865.641 79.1504V86.1586C833.952 86.4003 839.516 86.4003 833.952 86.4003V107.908H832.985V110.083H821.858V121.683H797.184V60.7842H761.867V117.816H756.062V111.533L746.87 107.183H742.515V104.767H739.613V102.592H736.952V83.5003H697.281V137.149H683.493V120.233L684.218 119.991C683.735 119.75 683.493 119.508 683.009 119.508C682.525 119.266 682.041 119.025 681.558 119.025C678.413 117.816 674.784 116.85 670.672 116.608H670.43H670.188C669.463 116.608 668.737 116.608 667.769 116.608C661.48 116.608 655.675 117.816 651.562 119.991H651.804V120.958V137.149L645.031 140.291L643.822 113.708H637.774V107.183H634.871V105.975H632.211V105.492H610.44V105.975H607.779V107.183H604.876V128.208H581.17V127.724H579.719V128.208H573.672L568.834 131.108V87.6086H545.612V46.7678H525.776L523.357 48.2178V79.1504H458.287V78.9088C458.287 45.8012 458.287 33.2348 458.287 31.3015L455.868 29.8515H414.988L412.569 31.3015V40.243H411.601V40.7263H372.414V68.034H370.962V70.6923H356.932V85.4336H325.486V7.6187H280.251V80.3587H272.752V72.3839L261.141 66.8257H255.578V63.6841H251.949V60.7842H248.563V36.3764H198.006V105.008H180.348V83.9837L181.316 83.5003C180.832 83.2587 180.348 83.017 179.864 82.7754C179.138 82.5337 178.655 82.292 178.171 82.0504C174.301 80.3587 169.463 79.3921 164.383 79.1504C164.383 79.1504 164.141 79.1504 163.899 79.1504C163.657 79.1504 163.657 79.1504 163.415 79.1504C162.448 79.1504 161.48 79.1504 160.512 79.1504C152.53 79.1504 145.031 80.8421 139.709 83.5003H140.193V84.9503V105.733L131.727 109.6L130.033 75.5255H122.293V67.0674H118.664V65.3757H115.278V64.6508H87.7016V65.3757H84.315V67.0674H80.6866V93.8918H50.4495V93.1668H48.7563V93.8918H40.048L33.7587 97.7583V42.1763H0.376953V207.231H985.863V206.264H1537.15V46.2845H1517.07Z" fill="#E5DAF2"/>
</svg>
