<svg width="89" height="223" viewBox="0 0 89 223" fill="none" xmlns="http://www.w3.org/2000/svg">
<path d="M64.2468 222.231H0.62793V33.9766L64.2468 0.869019V222.231Z" fill="#D6CDE4"/>
<path d="M56.7472 103.092H8.12598V108.892H56.7472V103.092Z" fill="white"/>
<path d="M56.7472 115.175H8.12598V120.975H56.7472V115.175Z" fill="#EDE3FC"/>
<path d="M56.7472 127.016H8.12598V132.816H56.7472V127.016Z" fill="#EDE3FC"/>
<path d="M56.7472 139.1H8.12598V144.899H56.7472V139.1Z" fill="white"/>
<path d="M56.7472 150.941H8.12598V156.741H56.7472V150.941Z" fill="white"/>
<path d="M56.7472 163.024H8.12598V168.824H56.7472V163.024Z" fill="#EDE3FC"/>
<path d="M56.7472 43.1599H8.12598V48.9598H56.7472V43.1599Z" fill="#EDE3FC"/>
<path d="M56.7472 55.2427H8.12598V61.0425H56.7472V55.2427Z" fill="#EDE3FC"/>
<path d="M56.7472 67.0845H8.12598V72.8843H56.7472V67.0845Z" fill="white"/>
<path d="M56.7472 79.1674H8.12598V84.9672H56.7472V79.1674Z" fill="#EDE3FC"/>
<path d="M56.7472 91.0092H8.12598V96.8091H56.7472V91.0092Z" fill="#EDE3FC"/>
<path d="M56.7472 175.107H8.12598V180.907H56.7472V175.107Z" fill="#EDE3FC"/>
<path d="M56.7472 186.948H8.12598V192.748H56.7472V186.948Z" fill="#EDE3FC"/>
<path d="M56.7472 199.032H8.12598V204.832H56.7472V199.032Z" fill="#EDE3FC"/>
<path d="M88.9184 0.869263H64.2451V222.231H88.9184V0.869263Z" fill="#B5ADC0"/>
</svg>
