<svg width="90" height="154" viewBox="0 0 90 154" fill="none" xmlns="http://www.w3.org/2000/svg">
<path d="M64.3591 153.231H0.740234V34.0921L64.3591 0.984497V153.231Z" fill="#D6CDE4"/>
<path d="M56.8594 40.1331H8.23828V45.9329H56.8594V40.1331Z" fill="#EDE3FC"/>
<path d="M56.8594 51.9744H8.23828V57.7742H56.8594V51.9744Z" fill="white"/>
<path d="M56.8594 64.058H8.23828V69.8578H56.8594V64.058Z" fill="#EDE3FC"/>
<path d="M56.8594 76.1407H8.23828V81.9406H56.8594V76.1407Z" fill="white"/>
<path d="M56.8594 87.9821H8.23828V93.7819H56.8594V87.9821Z" fill="#EDE3FC"/>
<path d="M56.8594 100.065H8.23828V105.865H56.8594V100.065Z" fill="white"/>
<path d="M56.8594 111.906H8.23828V117.706H56.8594V111.906Z" fill="#EDE3FC"/>
<path d="M56.8594 123.99H8.23828V129.789H56.8594V123.99Z" fill="#EDE3FC"/>
<path d="M56.8594 136.073H8.23828V141.872H56.8594V136.073Z" fill="#EDE3FC"/>
<path d="M89.0311 0.984131H64.3574V153.231H89.0311V0.984131Z" fill="#B5ADC0"/>
</svg>
