<svg width="127" height="190" viewBox="0 0 127 190" fill="none" xmlns="http://www.w3.org/2000/svg">
<path d="M40.4769 0.735718H0.322266V189.232H40.4769V0.735718Z" fill="#B4ACBF"/>
<path d="M126.836 0.734985H40.4785V189.231H126.836V0.734985Z" fill="#BCB4C8"/>
<path d="M22.0941 14.5098H14.3535V23.4512H22.0941V14.5098Z" fill="#EDE3FC"/>
<path d="M22.0941 44.4758H14.3535V53.4173H22.0941V44.4758Z" fill="#EDE3FC"/>
<path d="M22.0941 74.4418H14.3535V83.3833H22.0941V74.4418Z" fill="#EDE3FC"/>
<path d="M58.6192 13.3014H45.7988V25.3844H58.6192V13.3014Z" fill="white"/>
<path d="M75.0687 13.3014H62.248V25.3844H75.0687V13.3014Z" fill="white"/>
<path d="M91.2774 13.3014H78.457V25.3844H91.2774V13.3014Z" fill="#D6CDE4"/>
<path d="M107.482 13.3014H94.6611V25.3844H107.482V13.3014Z" fill="white"/>
<path d="M123.933 13.3014H111.112V25.3844H123.933V13.3014Z" fill="white"/>
<path d="M58.6192 43.0259H45.7988V55.109H58.6192V43.0259Z" fill="white"/>
<path d="M75.0687 43.0259H62.248V55.109H75.0687V43.0259Z" fill="#D6CDE4"/>
<path d="M91.2774 43.0259H78.457V55.109H91.2774V43.0259Z" fill="white"/>
<path d="M107.482 43.0259H94.6611V55.109H107.482V43.0259Z" fill="#D6CDE4"/>
<path d="M123.933 43.0259H111.112V55.109H123.933V43.0259Z" fill="white"/>
<path d="M58.6192 72.5083H45.7988V84.5914H58.6192V72.5083Z" fill="white"/>
<path d="M75.0687 72.5083H62.248V84.5914H75.0687V72.5083Z" fill="white"/>
<path d="M91.2774 72.5083H78.457V84.5914H91.2774V72.5083Z" fill="white"/>
<path d="M107.482 72.5083H94.6611V84.5914H107.482V72.5083Z" fill="#D6CDE4"/>
<path d="M123.933 72.5083H111.112V84.5914H123.933V72.5083Z" fill="white"/>
<path d="M22.0941 107.066H14.3535V116.007H22.0941V107.066Z" fill="#EDE3FC"/>
<path d="M22.0941 137.032H14.3535V145.974H22.0941V137.032Z" fill="#EDE3FC"/>
<path d="M22.0941 167.24H14.3535V176.181H22.0941V167.24Z" fill="#EDE3FC"/>
<path d="M58.6192 106.099H45.7988V118.183H58.6192V106.099Z" fill="white"/>
<path d="M75.0687 106.099H62.248V118.183H75.0687V106.099Z" fill="#D6CDE4"/>
<path d="M91.2774 106.099H78.457V118.183H91.2774V106.099Z" fill="#D6CDE4"/>
<path d="M107.482 106.099H94.6611V118.183H107.482V106.099Z" fill="white"/>
<path d="M123.933 106.099H111.112V118.183H123.933V106.099Z" fill="#D6CDE4"/>
<path d="M58.6192 135.582H45.7988V147.665H58.6192V135.582Z" fill="#D6CDE4"/>
<path d="M75.0687 135.582H62.248V147.665H75.0687V135.582Z" fill="white"/>
<path d="M91.2774 135.582H78.457V147.665H91.2774V135.582Z" fill="white"/>
<path d="M107.482 135.582H94.6611V147.665H107.482V135.582Z" fill="#D6CDE4"/>
<path d="M123.933 135.582H111.112V147.665H123.933V135.582Z" fill="white"/>
<path d="M58.6192 165.065H45.7988V177.148H58.6192V165.065Z" fill="white"/>
<path d="M75.0687 165.065H62.248V177.148H75.0687V165.065Z" fill="white"/>
<path d="M91.2774 165.065H78.457V177.148H91.2774V165.065Z" fill="white"/>
<path d="M107.482 165.065H94.6611V177.148H107.482V165.065Z" fill="white"/>
<path d="M123.933 165.065H111.112V177.148H123.933V165.065Z" fill="white"/>
</svg>
