<svg width="90" height="154" viewBox="0 0 90 154" fill="none" xmlns="http://www.w3.org/2000/svg">
<path d="M25.5605 153.231H89.1794V34.0917L25.5605 0.984131V153.231Z" fill="#D6CDE4"/>
<path d="M81.6817 40.1334H33.0605V45.9333H81.6817V40.1334Z" fill="#EDE3FC"/>
<path d="M81.6817 51.9747H33.0605V57.7746H81.6817V51.9747Z" fill="white"/>
<path d="M81.6817 64.0583H33.0605V69.8582H81.6817V64.0583Z" fill="#EDE3FC"/>
<path d="M81.6817 76.1411H33.0605V81.941H81.6817V76.1411Z" fill="white"/>
<path d="M81.6817 87.9824H33.0605V93.7823H81.6817V87.9824Z" fill="white"/>
<path d="M81.6817 100.066H33.0605V105.866H81.6817V100.066Z" fill="#EDE3FC"/>
<path d="M81.6817 111.907H33.0605V117.707H81.6817V111.907Z" fill="#EDE3FC"/>
<path d="M81.6817 123.99H33.0605V129.79H81.6817V123.99Z" fill="#EDE3FC"/>
<path d="M81.6817 136.074H33.0605V141.874H81.6817V136.074Z" fill="#EDE3FC"/>
<path d="M25.5601 0.984497H0.886719V153.231H25.5601V0.984497Z" fill="#B5ADC0"/>
</svg>
