<svg width="97" height="260" viewBox="0 0 97 260" fill="none" xmlns="http://www.w3.org/2000/svg">
<path d="M96.5983 259.231V52.8522L80.3913 20.2279V0.89502H39.5108V20.2279L23.3037 52.8522V259.231H96.5983Z" fill="#AAA3B5"/>
<path d="M74.3451 259.231V52.8522L58.138 20.2279H17.2575L0.808594 52.8522V259.231H74.3451Z" fill="#B5ADC0"/>
<path d="M58.1383 0.89502H17.2578V20.2279H58.1383V0.89502Z" fill="#D6CDE4"/>
<path d="M15.321 63.2435H7.82227V74.1183H15.321V63.2435Z" fill="white"/>
<path d="M28.3835 63.2435H20.8848V74.1183H28.3835V63.2435Z" fill="#D6CDE4"/>
<path d="M41.4451 63.2435H33.9463V74.1183H41.4451V63.2435Z" fill="#D6CDE4"/>
<path d="M54.2663 63.2435H46.7676V74.1183H54.2663V63.2435Z" fill="white"/>
<path d="M67.3289 63.2435H59.8301V74.1183H67.3289V63.2435Z" fill="#D6CDE4"/>
<path d="M15.321 81.1267H7.82227V92.0015H15.321V81.1267Z" fill="#D6CDE4"/>
<path d="M28.3835 81.1266H20.8848V92.0014H28.3835V81.1266Z" fill="white"/>
<path d="M41.4451 81.1266H33.9463V92.0014H41.4451V81.1266Z" fill="#D6CDE4"/>
<path d="M54.2663 81.1266H46.7676V92.0014H54.2663V81.1266Z" fill="#D6CDE4"/>
<path d="M67.3289 81.1266H59.8301V92.0014H67.3289V81.1266Z" fill="#D6CDE4"/>
<path d="M15.321 98.7686H7.82227V109.643H15.321V98.7686Z" fill="white"/>
<path d="M28.3835 98.7679H20.8848V109.643H28.3835V98.7679Z" fill="#D6CDE4"/>
<path d="M41.4451 98.7679H33.9463V109.643H41.4451V98.7679Z" fill="white"/>
<path d="M54.2663 98.7679H46.7676V109.643H54.2663V98.7679Z" fill="white"/>
<path d="M67.3289 98.7679H59.8301V109.643H67.3289V98.7679Z" fill="#D6CDE4"/>
<path d="M15.321 116.651H7.82227V127.526H15.321V116.651Z" fill="#D6CDE4"/>
<path d="M28.3835 116.651H20.8848V127.526H28.3835V116.651Z" fill="#D6CDE4"/>
<path d="M41.4451 116.651H33.9463V127.526H41.4451V116.651Z" fill="white"/>
<path d="M54.2663 116.651H46.7676V127.526H54.2663V116.651Z" fill="#D6CDE4"/>
<path d="M67.3289 116.651H59.8301V127.526H67.3289V116.651Z" fill="#D6CDE4"/>
<path d="M15.321 134.292H7.82227V145.167H15.321V134.292Z" fill="#D6CDE4"/>
<path d="M28.3835 134.292H20.8848V145.167H28.3835V134.292Z" fill="#D6CDE4"/>
<path d="M41.4451 134.292H33.9463V145.167H41.4451V134.292Z" fill="white"/>
<path d="M54.2663 134.292H46.7676V145.167H54.2663V134.292Z" fill="#D6CDE4"/>
<path d="M67.3289 134.292H59.8301V145.167H67.3289V134.292Z" fill="#D6CDE4"/>
<path d="M15.321 152.175H7.82227V163.05H15.321V152.175Z" fill="#D6CDE4"/>
<path d="M28.3835 152.175H20.8848V163.05H28.3835V152.175Z" fill="white"/>
<path d="M41.4451 152.175H33.9463V163.05H41.4451V152.175Z" fill="#D6CDE4"/>
<path d="M54.2663 152.175H46.7676V163.05H54.2663V152.175Z" fill="#D6CDE4"/>
<path d="M67.3289 152.175H59.8301V163.05H67.3289V152.175Z" fill="white"/>
<path d="M15.321 170.059H7.82227V180.934H15.321V170.059Z" fill="white"/>
<path d="M28.3835 170.058H20.8848V180.933H28.3835V170.058Z" fill="#D6CDE4"/>
<path d="M41.4451 170.058H33.9463V180.933H41.4451V170.058Z" fill="#D6CDE4"/>
<path d="M54.2663 170.058H46.7676V180.933H54.2663V170.058Z" fill="#D6CDE4"/>
<path d="M67.3289 170.058H59.8301V180.933H67.3289V170.058Z" fill="white"/>
<path d="M15.321 187.7H7.82227V198.575H15.321V187.7Z" fill="#D6CDE4"/>
<path d="M28.3835 187.699H20.8848V198.574H28.3835V187.699Z" fill="#D6CDE4"/>
<path d="M41.4451 187.699H33.9463V198.574H41.4451V187.699Z" fill="white"/>
<path d="M54.2663 187.699H46.7676V198.574H54.2663V187.699Z" fill="white"/>
<path d="M67.3289 187.699H59.8301V198.574H67.3289V187.699Z" fill="#D6CDE4"/>
<path d="M15.321 204.857H7.82227V215.732H15.321V204.857Z" fill="#D6CDE4"/>
<path d="M28.3835 204.857H20.8848V215.732H28.3835V204.857Z" fill="white"/>
<path d="M41.4451 204.857H33.9463V215.732H41.4451V204.857Z" fill="#D6CDE4"/>
<path d="M54.2663 204.857H46.7676V215.732H54.2663V204.857Z" fill="#D6CDE4"/>
<path d="M67.3289 204.857H59.8301V215.732H67.3289V204.857Z" fill="#D6CDE4"/>
<path d="M15.321 222.499H7.82227V233.374H15.321V222.499Z" fill="#D6CDE4"/>
<path d="M28.3835 222.499H20.8848V233.374H28.3835V222.499Z" fill="#D6CDE4"/>
<path d="M41.4451 222.499H33.9463V233.374H41.4451V222.499Z" fill="white"/>
<path d="M54.2663 222.499H46.7676V233.374H54.2663V222.499Z" fill="white"/>
<path d="M67.3289 222.499H59.8301V233.374H67.3289V222.499Z" fill="white"/>
<path d="M15.321 240.381H7.82227V251.256H15.321V240.381Z" fill="white"/>
<path d="M28.3835 240.381H20.8848V251.256H28.3835V240.381Z" fill="white"/>
<path d="M41.4451 240.381H33.9463V251.256H41.4451V240.381Z" fill="#D6CDE4"/>
<path d="M54.2663 240.381H46.7676V251.256H54.2663V240.381Z" fill="#D6CDE4"/>
<path d="M67.3289 240.381H59.8301V251.256H67.3289V240.381Z" fill="#D6CDE4"/>
</svg>
