<svg width="119" height="287" viewBox="0 0 119 287" fill="none" xmlns="http://www.w3.org/2000/svg">
<path d="M88.3001 286.23H0.0078125V48.4358L88.3001 0.828491V286.23Z" fill="#B5ADC0"/>
<path d="M23.4687 119.002H10.4062V133.501H23.4687V119.002Z" fill="white"/>
<path d="M41.6093 119.001H28.5469V133.501H41.6093V119.001Z" fill="#C6BDD2"/>
<path d="M59.7538 119.001H46.6914V133.501H59.7538V119.001Z" fill="#C6BDD2"/>
<path d="M77.8964 119.001H64.834V133.501H77.8964V119.001Z" fill="#C6BDD2"/>
<path d="M23.4687 138.817H10.4062V153.317H23.4687V138.817Z" fill="#C6BDD2"/>
<path d="M41.6093 138.817H28.5469V153.317H41.6093V138.817Z" fill="#C6BDD2"/>
<path d="M59.7538 138.817H46.6914V153.317H59.7538V138.817Z" fill="white"/>
<path d="M77.8964 138.817H64.834V153.317H77.8964V138.817Z" fill="#C6BDD2"/>
<path d="M23.4687 158.875H10.4062V173.375H23.4687V158.875Z" fill="#C6BDD2"/>
<path d="M41.6093 158.875H28.5469V173.375H41.6093V158.875Z" fill="white"/>
<path d="M59.7538 158.875H46.6914V173.375H59.7538V158.875Z" fill="#C6BDD2"/>
<path d="M77.8964 158.875H64.834V173.375H77.8964V158.875Z" fill="#C6BDD2"/>
<path d="M23.4687 178.691H10.4062V193.191H23.4687V178.691Z" fill="#C6BDD2"/>
<path d="M41.6093 178.691H28.5469V193.191H41.6093V178.691Z" fill="#C6BDD2"/>
<path d="M59.7538 178.691H46.6914V193.191H59.7538V178.691Z" fill="white"/>
<path d="M77.8964 178.691H64.834V193.191H77.8964V178.691Z" fill="white"/>
<path d="M23.4687 198.507H10.4062V213.007H23.4687V198.507Z" fill="#C6BDD2"/>
<path d="M41.6093 198.507H28.5469V213.007H41.6093V198.507Z" fill="#C6BDD2"/>
<path d="M59.7538 198.507H46.6914V213.007H59.7538V198.507Z" fill="#C6BDD2"/>
<path d="M77.8964 198.507H64.834V213.007H77.8964V198.507Z" fill="#C6BDD2"/>
<path d="M23.4687 218.565H10.4062V233.065H23.4687V218.565Z" fill="#C6BDD2"/>
<path d="M41.6093 218.565H28.5469V233.065H41.6093V218.565Z" fill="#C6BDD2"/>
<path d="M59.7538 218.565H46.6914V233.065H59.7538V218.565Z" fill="white"/>
<path d="M77.8964 218.565H64.834V233.065H77.8964V218.565Z" fill="#C6BDD2"/>
<path d="M23.4687 238.382H10.4062V252.881H23.4687V238.382Z" fill="#C6BDD2"/>
<path d="M41.6093 238.382H28.5469V252.881H41.6093V238.382Z" fill="white"/>
<path d="M59.7538 238.382H46.6914V252.881H59.7538V238.382Z" fill="#C6BDD2"/>
<path d="M77.8964 238.382H64.834V252.881H77.8964V238.382Z" fill="#C6BDD2"/>
<path d="M23.4687 258.198H10.4062V272.698H23.4687V258.198Z" fill="#C6BDD2"/>
<path d="M41.6093 258.198H28.5469V272.698H41.6093V258.198Z" fill="#C6BDD2"/>
<path d="M59.7538 258.198H46.6914V272.698H59.7538V258.198Z" fill="#C6BDD2"/>
<path d="M77.8964 258.198H64.834V272.698H77.8964V258.198Z" fill="white"/>
<path d="M23.4687 59.3102H10.4062V73.8098H23.4687V59.3102Z" fill="white"/>
<path d="M41.6093 59.3097H28.5469V73.8094H41.6093V59.3097Z" fill="#C6BDD2"/>
<path d="M59.7538 59.3097H46.6914V73.8094H59.7538V59.3097Z" fill="#C6BDD2"/>
<path d="M77.8964 59.3097H64.834V73.8094H77.8964V59.3097Z" fill="white"/>
<path d="M23.4687 79.1265H10.4062V93.6261H23.4687V79.1265Z" fill="#C6BDD2"/>
<path d="M41.6093 79.1265H28.5469V93.6261H41.6093V79.1265Z" fill="#C6BDD2"/>
<path d="M59.7538 79.1265H46.6914V93.6261H59.7538V79.1265Z" fill="white"/>
<path d="M77.8964 79.1265H64.834V93.6261H77.8964V79.1265Z" fill="#C6BDD2"/>
<path d="M23.4687 98.9423H10.4062V113.442H23.4687V98.9423Z" fill="#C6BDD2"/>
<path d="M41.6093 98.9423H28.5469V113.442H41.6093V98.9423Z" fill="#C6BDD2"/>
<path d="M59.7538 98.9423H46.6914V113.442H59.7538V98.9423Z" fill="white"/>
<path d="M77.8964 98.9423H64.834V113.442H77.8964V98.9423Z" fill="#C6BDD2"/>
<path d="M118.78 0.828247H88.3008V286.23H118.78V0.828247Z" fill="#AAA3B5"/>
</svg>
