<svg width="128" height="190" viewBox="0 0 128 190" fill="none" xmlns="http://www.w3.org/2000/svg">
<path d="M40.6568 0.735718H0.501953V189.232H40.6568V0.735718Z" fill="#B4ACBF"/>
<path d="M127.257 0.734985H40.9004V189.231H127.257V0.734985Z" fill="#BCB4C8"/>
<path d="M22.5141 14.5098H14.7734V23.4512H22.5141V14.5098Z" fill="#EDE3FC"/>
<path d="M22.5141 44.4758H14.7734V53.4173H22.5141V44.4758Z" fill="#EDE3FC"/>
<path d="M22.5141 74.4418H14.7734V83.3833H22.5141V74.4418Z" fill="#EDE3FC"/>
<path d="M59.0412 13.3014H46.2207V25.3844H59.0412V13.3014Z" fill="white"/>
<path d="M75.2482 13.3014H62.4277V25.3844H75.2482V13.3014Z" fill="white"/>
<path d="M91.4553 13.3014H78.6348V25.3844H91.4553V13.3014Z" fill="#D6CDE4"/>
<path d="M107.903 13.3014H95.082V25.3844H107.903V13.3014Z" fill="white"/>
<path d="M124.112 13.3014H111.291V25.3844H124.112V13.3014Z" fill="white"/>
<path d="M59.0412 43.0259H46.2207V55.109H59.0412V43.0259Z" fill="white"/>
<path d="M75.2482 43.0259H62.4277V55.109H75.2482V43.0259Z" fill="#D6CDE4"/>
<path d="M91.4553 43.0259H78.6348V55.109H91.4553V43.0259Z" fill="white"/>
<path d="M107.903 43.0259H95.082V55.109H107.903V43.0259Z" fill="white"/>
<path d="M124.112 43.0259H111.291V55.109H124.112V43.0259Z" fill="white"/>
<path d="M59.0412 72.5083H46.2207V84.5914H59.0412V72.5083Z" fill="white"/>
<path d="M75.2482 72.5083H62.4277V84.5914H75.2482V72.5083Z" fill="#D6CDE4"/>
<path d="M91.4553 72.5083H78.6348V84.5914H91.4553V72.5083Z" fill="white"/>
<path d="M107.903 72.5083H95.082V84.5914H107.903V72.5083Z" fill="#D6CDE4"/>
<path d="M124.112 72.5083H111.291V84.5914H124.112V72.5083Z" fill="white"/>
<path d="M22.5141 107.066H14.7734V116.007H22.5141V107.066Z" fill="#EDE3FC"/>
<path d="M22.5141 137.032H14.7734V145.974H22.5141V137.032Z" fill="#EDE3FC"/>
<path d="M22.5141 167.24H14.7734V176.181H22.5141V167.24Z" fill="#EDE3FC"/>
<path d="M59.0412 106.099H46.2207V118.183H59.0412V106.099Z" fill="#D6CDE4"/>
<path d="M75.2482 106.099H62.4277V118.183H75.2482V106.099Z" fill="white"/>
<path d="M91.4553 106.099H78.6348V118.183H91.4553V106.099Z" fill="white"/>
<path d="M107.903 106.099H95.082V118.183H107.903V106.099Z" fill="#D6CDE4"/>
<path d="M124.112 106.099H111.291V118.183H124.112V106.099Z" fill="white"/>
<path d="M59.0412 135.582H46.2207V147.665H59.0412V135.582Z" fill="white"/>
<path d="M75.2482 135.582H62.4277V147.665H75.2482V135.582Z" fill="white"/>
<path d="M91.4553 135.582H78.6348V147.665H91.4553V135.582Z" fill="#D6CDE4"/>
<path d="M107.903 135.582H95.082V147.665H107.903V135.582Z" fill="white"/>
<path d="M124.112 135.582H111.291V147.665H124.112V135.582Z" fill="white"/>
<path d="M59.0412 165.065H46.2207V177.148H59.0412V165.065Z" fill="white"/>
<path d="M75.2482 165.065H62.4277V177.148H75.2482V165.065Z" fill="white"/>
<path d="M91.4553 165.065H78.6348V177.148H91.4553V165.065Z" fill="white"/>
<path d="M107.903 165.065H95.082V177.148H107.903V165.065Z" fill="white"/>
<path d="M124.112 165.065H111.291V177.148H124.112V165.065Z" fill="white"/>
</svg>
