<svg width="90" height="223" viewBox="0 0 90 223" fill="none" xmlns="http://www.w3.org/2000/svg">
<path d="M64.4664 222.231H0.847656V33.9766L64.4664 0.869019V222.231Z" fill="#D6CDE4"/>
<path d="M56.9669 103.092H8.3457V108.892H56.9669V103.092Z" fill="#EDE3FC"/>
<path d="M56.9669 115.175H8.3457V120.975H56.9669V115.175Z" fill="white"/>
<path d="M56.9669 127.016H8.3457V132.816H56.9669V127.016Z" fill="#EDE3FC"/>
<path d="M56.9669 139.1H8.3457V144.899H56.9669V139.1Z" fill="#EDE3FC"/>
<path d="M56.9669 150.941H8.3457V156.741H56.9669V150.941Z" fill="#EDE3FC"/>
<path d="M56.9669 163.024H8.3457V168.824H56.9669V163.024Z" fill="white"/>
<path d="M56.9669 43.1599H8.3457V48.9598H56.9669V43.1599Z" fill="white"/>
<path d="M56.9669 55.2427H8.3457V61.0425H56.9669V55.2427Z" fill="#EDE3FC"/>
<path d="M56.9669 67.0845H8.3457V72.8843H56.9669V67.0845Z" fill="#EDE3FC"/>
<path d="M56.9669 79.1674H8.3457V84.9672H56.9669V79.1674Z" fill="white"/>
<path d="M56.9669 91.0092H8.3457V96.8091H56.9669V91.0092Z" fill="#EDE3FC"/>
<path d="M56.9669 175.107H8.3457V180.907H56.9669V175.107Z" fill="white"/>
<path d="M56.9669 186.948H8.3457V192.748H56.9669V186.948Z" fill="white"/>
<path d="M56.9669 199.032H8.3457V204.832H56.9669V199.032Z" fill="#EDE3FC"/>
<path d="M89.1402 0.869263H64.4668V222.231H89.1402V0.869263Z" fill="#B5ADC0"/>
</svg>
