<svg width="97" height="309" viewBox="0 0 97 309" fill="none" xmlns="http://www.w3.org/2000/svg">
<path d="M79.8748 19.4456V0.112671H38.9942V19.4456L22.7871 51.8282V308.231H96.0819V51.8282L79.8748 19.4456Z" fill="#AAA3B5"/>
<path d="M57.3795 19.4456H16.4991L0.291992 51.8282V308.231H73.5865V51.8282L57.3795 19.4456Z" fill="#B5ADC0"/>
<path d="M57.3795 0.112671H16.499V19.4456H57.3795V0.112671Z" fill="#D6CDE4"/>
<path d="M14.8094 62.4611H7.31055V73.3359H14.8094V62.4611Z" fill="white"/>
<path d="M27.6317 62.4611H20.1328V73.3359H27.6317V62.4611Z" fill="#D6CDE4"/>
<path d="M40.6939 62.4611H33.1953V73.3359H40.6939V62.4611Z" fill="#D6CDE4"/>
<path d="M53.7566 62.4611H46.2578V73.3359H53.7566V62.4611Z" fill="white"/>
<path d="M66.8201 62.4611H59.3213V73.3359H66.8201V62.4611Z" fill="#D6CDE4"/>
<path d="M14.8094 80.3444H7.31055V91.2191H14.8094V80.3444Z" fill="#D6CDE4"/>
<path d="M27.6288 80.3444H20.1299V91.2191H27.6288V80.3444Z" fill="#D6CDE4"/>
<path d="M40.691 80.3444H33.1924V91.2191H40.691V80.3444Z" fill="#D6CDE4"/>
<path d="M53.7536 80.3444H46.2549V91.2191H53.7536V80.3444Z" fill="#D6CDE4"/>
<path d="M66.8161 80.3444H59.3174V91.2191H66.8161V80.3444Z" fill="white"/>
<path d="M14.8094 97.9855H7.31055V108.86H14.8094V97.9855Z" fill="#D6CDE4"/>
<path d="M27.6288 97.9857H20.1299V108.86H27.6288V97.9857Z" fill="white"/>
<path d="M40.691 97.9857H33.1924V108.86H40.691V97.9857Z" fill="#D6CDE4"/>
<path d="M53.7536 97.9857H46.2549V108.86H53.7536V97.9857Z" fill="#D6CDE4"/>
<path d="M66.8161 97.9857H59.3174V108.86H66.8161V97.9857Z" fill="#D6CDE4"/>
<path d="M14.8094 115.868H7.31055V126.743H14.8094V115.868Z" fill="#D6CDE4"/>
<path d="M27.6288 115.869H20.1299V126.743H27.6288V115.869Z" fill="#D6CDE4"/>
<path d="M40.691 115.869H33.1924V126.743H40.691V115.869Z" fill="#D6CDE4"/>
<path d="M53.7536 115.869H46.2549V126.743H53.7536V115.869Z" fill="white"/>
<path d="M66.8161 115.869H59.3174V126.743H66.8161V115.869Z" fill="#D6CDE4"/>
<path d="M14.8094 133.51H7.31055V144.384H14.8094V133.51Z" fill="#D6CDE4"/>
<path d="M27.6288 133.51H20.1299V144.385H27.6288V133.51Z" fill="white"/>
<path d="M40.691 133.51H33.1924V144.385H40.691V133.51Z" fill="#D6CDE4"/>
<path d="M53.7536 133.51H46.2549V144.385H53.7536V133.51Z" fill="#D6CDE4"/>
<path d="M66.8161 133.51H59.3174V144.385H66.8161V133.51Z" fill="#D6CDE4"/>
<path d="M14.8094 151.393H7.31055V162.268H14.8094V151.393Z" fill="#D6CDE4"/>
<path d="M27.6288 151.393H20.1299V162.268H27.6288V151.393Z" fill="#D6CDE4"/>
<path d="M40.691 151.393H33.1924V162.268H40.691V151.393Z" fill="#D6CDE4"/>
<path d="M53.7536 151.393H46.2549V162.268H53.7536V151.393Z" fill="white"/>
<path d="M66.8161 151.393H59.3174V162.268H66.8161V151.393Z" fill="#D6CDE4"/>
<path d="M14.8094 169.034H7.31055V179.909H14.8094V169.034Z" fill="white"/>
<path d="M27.6288 169.034H20.1299V179.909H27.6288V169.034Z" fill="white"/>
<path d="M40.691 169.034H33.1924V179.909H40.691V169.034Z" fill="#D6CDE4"/>
<path d="M53.7536 169.034H46.2549V179.909H53.7536V169.034Z" fill="white"/>
<path d="M66.8161 169.034H59.3174V179.909H66.8161V169.034Z" fill="#D6CDE4"/>
<path d="M14.8094 186.918H7.31055V197.793H14.8094V186.918Z" fill="#D6CDE4"/>
<path d="M27.6288 186.917H20.1299V197.792H27.6288V186.917Z" fill="#D6CDE4"/>
<path d="M40.691 186.917H33.1924V197.792H40.691V186.917Z" fill="white"/>
<path d="M53.7536 186.917H46.2549V197.792H53.7536V186.917Z" fill="#D6CDE4"/>
<path d="M66.8161 186.917H59.3174V197.792H66.8161V186.917Z" fill="white"/>
<path d="M14.8094 203.833H7.31055V214.708H14.8094V203.833Z" fill="#D6CDE4"/>
<path d="M27.6317 203.833H20.1328V214.708H27.6317V203.833Z" fill="white"/>
<path d="M40.6939 203.833H33.1953V214.708H40.6939V203.833Z" fill="#D6CDE4"/>
<path d="M53.7566 203.833H46.2578V214.708H53.7566V203.833Z" fill="white"/>
<path d="M66.8201 203.833H59.3213V214.708H66.8201V203.833Z" fill="#D6CDE4"/>
<path d="M14.8094 221.716H7.31055V232.591H14.8094V221.716Z" fill="#D6CDE4"/>
<path d="M27.6288 221.716H20.1299V232.591H27.6288V221.716Z" fill="white"/>
<path d="M40.691 221.716H33.1924V232.591H40.691V221.716Z" fill="#D6CDE4"/>
<path d="M53.7536 221.716H46.2549V232.591H53.7536V221.716Z" fill="white"/>
<path d="M66.8161 221.716H59.3174V232.591H66.8161V221.716Z" fill="white"/>
<path d="M14.8094 239.357H7.31055V250.232H14.8094V239.357Z" fill="#D6CDE4"/>
<path d="M27.6288 239.357H20.1299V250.232H27.6288V239.357Z" fill="#D6CDE4"/>
<path d="M40.691 239.357H33.1924V250.232H40.691V239.357Z" fill="white"/>
<path d="M53.7536 239.357H46.2549V250.232H53.7536V239.357Z" fill="#D6CDE4"/>
<path d="M66.8161 239.357H59.3174V250.232H66.8161V239.357Z" fill="#D6CDE4"/>
<path d="M14.8094 257.241H7.31055V268.115H14.8094V257.241Z" fill="white"/>
<path d="M27.6288 257.241H20.1299V268.115H27.6288V257.241Z" fill="#D6CDE4"/>
<path d="M40.691 257.241H33.1924V268.115H40.691V257.241Z" fill="#D6CDE4"/>
<path d="M53.7536 257.241H46.2549V268.115H53.7536V257.241Z" fill="#D6CDE4"/>
<path d="M66.8161 257.241H59.3174V268.115H66.8161V257.241Z" fill="white"/>
<path d="M14.8094 274.882H7.31055V285.757H14.8094V274.882Z" fill="#D6CDE4"/>
<path d="M27.6288 274.882H20.1299V285.757H27.6288V274.882Z" fill="#D6CDE4"/>
<path d="M40.691 274.882H33.1924V285.757H40.691V274.882Z" fill="white"/>
<path d="M53.7536 274.882H46.2549V285.757H53.7536V274.882Z" fill="white"/>
<path d="M66.8161 274.882H59.3174V285.757H66.8161V274.882Z" fill="#D6CDE4"/>
</svg>
