<svg width="86" height="206" viewBox="0 0 86 206" fill="none" xmlns="http://www.w3.org/2000/svg">
<path d="M64.0594 205.231H0.682617V34.6184L64.0594 0.544189V205.231Z" fill="#B5ADC0"/>
<path d="M17.6147 85.3671H8.42285V95.7585H17.6147V85.3671Z" fill="#C6BDD2"/>
<path d="M30.4323 85.3668H21.2402V95.7583H30.4323V85.3668Z" fill="white"/>
<path d="M43.497 85.3668H34.3047V95.7583H43.497V85.3668Z" fill="#C6BDD2"/>
<path d="M56.5584 85.3668H47.3662V95.7583H56.5584V85.3668Z" fill="#C6BDD2"/>
<path d="M17.6138 99.6249H8.42188V110.016H17.6138V99.6249Z" fill="#C6BDD2"/>
<path d="M30.4323 99.6249H21.2402V110.016H30.4323V99.6249Z" fill="#C6BDD2"/>
<path d="M43.497 99.6249H34.3047V110.016H43.497V99.6249Z" fill="white"/>
<path d="M56.5584 99.6249H47.3662V110.016H56.5584V99.6249Z" fill="#C6BDD2"/>
<path d="M17.6138 113.883H8.42188V124.275H17.6138V113.883Z" fill="#C6BDD2"/>
<path d="M30.4323 113.883H21.2402V124.275H30.4323V113.883Z" fill="white"/>
<path d="M43.497 113.883H34.3047V124.275H43.497V113.883Z" fill="#C6BDD2"/>
<path d="M56.5584 113.883H47.3662V124.275H56.5584V113.883Z" fill="#C6BDD2"/>
<path d="M17.6138 128.141H8.42188V138.532H17.6138V128.141Z" fill="white"/>
<path d="M30.4323 128.141H21.2402V138.532H30.4323V128.141Z" fill="#C6BDD2"/>
<path d="M43.497 128.141H34.3047V138.532H43.497V128.141Z" fill="#C6BDD2"/>
<path d="M56.5584 128.141H47.3662V138.532H56.5584V128.141Z" fill="white"/>
<path d="M17.6138 142.399H8.42188V152.79H17.6138V142.399Z" fill="#C6BDD2"/>
<path d="M30.4323 142.399H21.2402V152.79H30.4323V142.399Z" fill="#C6BDD2"/>
<path d="M43.497 142.399H34.3047V152.79H43.497V142.399Z" fill="#C6BDD2"/>
<path d="M56.5584 142.399H47.3662V152.79H56.5584V142.399Z" fill="#C6BDD2"/>
<path d="M17.6138 156.657H8.42188V167.049H17.6138V156.657Z" fill="#C6BDD2"/>
<path d="M30.4323 156.657H21.2402V167.049H30.4323V156.657Z" fill="#C6BDD2"/>
<path d="M43.497 156.657H34.3047V167.049H43.497V156.657Z" fill="#C6BDD2"/>
<path d="M56.5584 156.657H47.3662V167.049H56.5584V156.657Z" fill="white"/>
<path d="M17.6138 170.915H8.42188V181.307H17.6138V170.915Z" fill="#C6BDD2"/>
<path d="M30.4323 170.915H21.2402V181.307H30.4323V170.915Z" fill="white"/>
<path d="M43.497 170.915H34.3047V181.307H43.497V170.915Z" fill="white"/>
<path d="M56.5584 170.915H47.3662V181.307H56.5584V170.915Z" fill="#C6BDD2"/>
<path d="M17.6138 185.173H8.42188V195.564H17.6138V185.173Z" fill="#C6BDD2"/>
<path d="M30.4323 185.173H21.2402V195.564H30.4323V185.173Z" fill="#C6BDD2"/>
<path d="M43.497 185.173H34.3047V195.564H43.497V185.173Z" fill="#C6BDD2"/>
<path d="M56.5584 185.173H47.3662V195.564H56.5584V185.173Z" fill="#C6BDD2"/>
<path d="M17.6147 42.3513H8.42285V52.7428H17.6147V42.3513Z" fill="white"/>
<path d="M30.4323 42.3511H21.2402V52.7425H30.4323V42.3511Z" fill="#C6BDD2"/>
<path d="M43.497 42.3511H34.3047V52.7425H43.497V42.3511Z" fill="#C6BDD2"/>
<path d="M56.5584 42.3511H47.3662V52.7425H56.5584V42.3511Z" fill="#C6BDD2"/>
<path d="M17.6138 56.6089H8.42188V67.0004H17.6138V56.6089Z" fill="#C6BDD2"/>
<path d="M30.4323 56.6089H21.2402V67.0004H30.4323V56.6089Z" fill="white"/>
<path d="M43.497 56.6089H34.3047V67.0004H43.497V56.6089Z" fill="#C6BDD2"/>
<path d="M56.5584 56.6089H47.3662V67.0004H56.5584V56.6089Z" fill="white"/>
<path d="M17.6138 71.1088H8.42188V81.5002H17.6138V71.1088Z" fill="#C6BDD2"/>
<path d="M30.4323 71.1088H21.2402V81.5002H30.4323V71.1088Z" fill="#C6BDD2"/>
<path d="M43.497 71.1088H34.3047V81.5002H43.497V71.1088Z" fill="#C6BDD2"/>
<path d="M56.5584 71.1088H47.3662V81.5002H56.5584V71.1088Z" fill="#C6BDD2"/>
<path d="M85.8285 0.543823H64.0576V205.231H85.8285V0.543823Z" fill="#AAA3B5"/>
</svg>
