<svg width="91" height="186" viewBox="0 0 91 186" fill="none" xmlns="http://www.w3.org/2000/svg">
<path d="M20.7386 47.2442L18.8035 47.7275L47.3473 164.208L71.2951 158.408C80.7291 156.233 86.2927 147.05 84.1156 138.109L80.729 124.334L69.3599 78.1768L68.6342 75.0352C63.5544 54.2523 42.2674 41.9276 20.7386 47.2442Z" fill="#5589B9"/>
<path d="M10.0931 3.98707C10.8187 6.64535 9.12547 9.06196 6.4646 9.78695C3.80373 10.5119 1.14288 8.82031 0.659082 6.40369C-0.0666089 3.74541 1.62667 1.32877 4.28754 0.603781C6.94841 -0.121205 9.36736 1.57045 10.0931 3.98707Z" fill="#4D4D4D"/>
<path d="M44.6867 177.258L50.0084 176.05L7.91841 4.95366C7.43462 3.50369 5.98322 2.53706 4.53184 2.77872C3.08046 3.26205 2.11287 4.712 2.59666 6.16197L44.6867 177.258Z" fill="#1D1715"/>
<path d="M67.9083 141.25L56.5392 143.909C52.9107 144.875 49.0404 142.7 48.0728 139.076L39.8483 105.968C38.8807 102.343 41.2997 98.7181 44.9281 97.7514L56.2973 95.0932C59.9257 94.1265 63.7961 96.3015 64.7637 99.9264L72.9881 133.034C74.1976 136.659 71.7786 140.284 67.9083 141.25Z" fill="#4072A1"/>
<path d="M82.1798 95.5764L90.4043 128.684C91.3719 132.309 88.9529 135.934 85.3245 136.9L84.115 137.142L72.7458 90.9849L73.9553 90.7432C77.3418 89.7765 81.2122 91.9515 82.1798 95.5764Z" fill="#4072A1"/>
<path d="M65.9713 103.276L41.0636 109.362L42.7878 116.405L67.6955 110.318L65.9713 103.276Z" fill="#ECF0F1"/>
<path d="M82.8962 99.3253L74.9069 101.276L76.6297 108.318L84.619 106.368L82.8962 99.3253Z" fill="#ECF0F1"/>
<path d="M56.7806 174.358C57.9901 179.191 54.8454 184.266 49.7656 185.474C44.6858 186.683 39.606 183.783 38.3965 178.95C37.187 174.116 40.3317 169.041 45.4115 167.833C50.4913 166.383 55.5711 169.283 56.7806 174.358Z" fill="#1D1715"/>
<path d="M52.1862 175.324C52.67 177.741 51.2187 180.157 48.7997 180.882C46.3808 181.607 43.7199 179.916 43.2361 177.499C42.7523 175.082 44.2037 172.666 46.6227 171.941C49.0416 171.458 51.4605 172.908 52.1862 175.324Z" fill="#F6F6F6"/>
</svg>
