<svg width="107" height="305" viewBox="0 0 107 305" fill="none" xmlns="http://www.w3.org/2000/svg">
<path d="M13.062 300.466C13.062 300.707 13.062 301.191 13.062 301.432H37.9773V300.949C37.9773 300.707 37.9773 300.707 37.9773 300.466V300.224C37.7354 299.016 37.4935 297.807 37.2516 296.841C36.0422 292.974 33.1394 291.766 29.7528 291.283C28.5434 291.041 27.3339 291.041 25.8825 291.041H24.9149C19.1094 291.041 14.2715 291.524 13.3039 297.566C13.062 298.774 13.062 299.499 13.062 300.466Z" fill="#212121"/>
<path d="M12.8192 300.466L13.061 301.674V304.332H37.9764L37.7345 301.674V301.191V300.707V300.466H12.8192Z" fill="#1D1715"/>
<path d="M65.7964 299.016C65.7964 299.499 65.7964 299.982 65.7964 300.466V301.432H105.951C105.951 300.949 105.951 300.707 105.709 300.466C104.5 294.666 97.243 291.766 89.2604 290.558C82.9711 289.591 76.4398 289.833 71.36 290.558C69.6667 290.799 68.2153 291.041 67.0058 291.524C66.5221 291.766 65.3126 292.007 65.7964 299.016Z" fill="#1D1715"/>
<path d="M65.7968 300.465V301.432L66.0387 304.332H106.194L105.952 301.432V300.465H65.7968Z" fill="#16191E"/>
<path d="M11.1273 295.633C11.1273 296.599 11.853 297.324 13.3044 297.807C15.4815 298.532 19.1099 298.774 22.9803 298.774C23.706 298.774 24.4316 298.774 25.1573 298.532C29.2696 298.291 33.6237 297.566 37.0103 296.841C38.2198 296.599 39.1873 296.357 39.913 296.116L42.0901 235.459V233.042L43.0577 205.493L51.0403 152.327V151.119L59.7485 204.043L59.9904 205.01C59.9904 217.818 59.5066 231.351 59.2647 244.884C59.0228 265.908 59.5067 285.966 63.8608 299.741C64.1027 299.499 64.3446 299.499 64.5865 299.499C64.8284 299.257 65.3122 299.257 65.5541 299.016C67.4892 298.291 69.6663 297.566 72.0853 297.082C77.8908 295.391 84.6639 293.941 89.5018 290.558V290.316L87.0828 206.701L84.422 160.544L83.9382 153.777L83.2125 139.519V139.036L82.7287 130.095L82.003 118.736L81.7611 113.178V111.003L81.5192 107.378L81.2773 103.753L81.0354 99.4035H13.0625C12.8206 101.095 12.8206 102.545 12.8206 104.237C12.8206 105.445 12.8206 106.412 12.8206 107.62C12.8206 111.728 13.0625 115.595 13.3044 119.461C13.3044 120.186 13.5463 120.67 13.5463 121.395C14.0301 125.261 14.7558 129.128 15.4815 132.753C15.7234 133.961 15.9653 134.928 16.2072 136.136C16.691 137.828 17.1748 139.519 17.6585 141.211C17.6585 142.419 17.4167 143.628 17.4167 145.078C17.4167 146.769 17.1748 148.219 17.1748 149.911L16.9328 156.677C16.9328 158.852 16.691 161.027 16.691 162.96C15.9653 176.977 15.4815 190.51 15.4815 200.66C15.4815 201.626 15.4815 202.593 15.4815 203.56C15.4815 207.426 15.2396 213.468 14.7558 220.959C12.8206 245.367 8.95028 283.549 11.1273 295.633Z" fill="#5E4A4C"/>
<path opacity="0.3" d="M13.3045 121.395C13.7883 125.262 14.514 129.128 15.2397 132.753C15.4816 133.961 15.7235 134.928 15.9654 136.136C16.4492 137.828 16.933 139.52 17.4168 141.211C17.1749 144.111 17.1748 147.011 16.933 149.669L16.6911 156.436C16.6911 158.611 16.4492 160.786 16.4492 162.719C22.9804 162.236 30.963 162.236 39.4293 162.477C42.574 168.519 42.0902 176.01 41.3645 183.019C41.1226 185.919 40.8807 189.06 39.6712 191.718C38.4618 194.377 36.5266 197.035 33.8657 198.002C36.7685 200.66 38.4617 204.526 39.1874 208.151C39.9131 212.018 39.9131 215.885 40.3969 219.751C40.6388 225.068 41.3645 230.384 42.0902 235.459V233.042L43.0578 205.493L51.0404 152.328V151.119L59.7486 204.043L59.9905 205.01C59.9905 217.818 59.5067 231.593 59.2648 244.884C59.2648 245.126 59.2648 245.367 59.2648 245.609C59.7486 240.534 60.2324 235.459 60.4743 230.143C60.4743 227.726 60.7162 225.309 61.4419 223.134C61.9257 221.684 62.6514 220.234 63.1352 218.784C64.8285 213.468 64.3447 207.426 67.2474 202.593C67.4893 202.11 67.7312 201.627 67.7312 201.143C67.7312 200.66 67.4893 199.935 67.4893 199.452C63.1352 187.852 61.6838 175.044 62.8933 162.719C71.1177 162.719 78.6165 161.994 84.6639 160.544L84.1802 153.778L83.2126 139.036L82.7288 130.095L82.0031 118.737C69.9083 118.495 57.5716 120.428 45.4767 120.912C34.5914 121.878 23.9479 121.395 13.3045 121.395Z" fill="#1D1D1B"/>
<path d="M0 26.9052C0 27.3885 0 27.8718 0 28.3552V28.5968L1.20948 44.3048V44.7881C1.20948 44.7881 7.25691 100.854 5.07984 136.378C4.83795 141.453 9.19207 145.803 14.5138 145.078C15.4814 145.078 16.2071 144.836 17.1747 144.836C26.3667 144.111 38.9454 145.078 51.524 146.528C55.1524 147.011 59.0228 147.494 62.6512 147.978C71.3595 149.186 79.584 142.903 80.0678 133.961V133.72C80.0678 133.478 80.0678 133.236 80.0678 132.995C80.7935 126.711 81.0354 120.186 81.0354 113.178V111.003C81.0354 109.07 81.0354 107.378 81.0354 105.445C81.0354 103.27 80.7935 101.095 80.7935 99.1619C80.7935 97.712 80.5516 96.0204 80.5516 94.5704C80.3097 92.6371 80.3097 90.9455 80.0678 89.2538C80.0678 88.5289 79.8259 87.5622 79.8259 86.8372C79.8259 85.8706 79.584 84.9039 79.584 83.9373C79.584 82.9707 79.3421 82.2457 79.3421 81.279C79.3421 80.3124 79.1002 79.5874 79.1002 78.6207V78.3791C79.1002 77.6541 78.8583 76.9291 78.8583 75.9625C78.8583 74.9958 78.6164 74.2708 78.6164 73.3042C78.1326 68.7126 77.4069 64.3627 76.9231 60.0128C76.1974 55.1796 75.4718 50.588 74.7461 46.4798C74.2623 44.3048 74.0204 42.1299 73.5366 40.1966C72.8109 36.5716 72.3271 33.43 71.6014 30.5301C71.1176 27.6302 70.6338 25.4552 70.15 23.7636C69.6662 21.347 69.1825 19.897 69.1825 19.897C66.7635 15.5471 67.4892 12.1638 62.8931 9.74721C62.8931 9.74721 62.6512 9.74723 62.4093 9.50557C61.9255 9.26391 61.1998 9.02224 60.4742 8.78058H60.2323C55.3944 7.33061 46.2023 4.43066 46.2023 4.43066H45.7185H45.4766L22.4964 5.88065L18.1422 6.12229L7.7407 12.1638C3.14467 15.3054 0 20.8636 0 26.9052Z" fill="#EA4A49"/>
<path d="M43.0573 0.563881C36.768 -0.644419 22.738 0.322191 20.5609 1.28883L18.8677 6.12203C20.5609 9.02195 35.3166 8.78029 46.6858 4.43042L46.202 3.22212C45.7182 2.01382 44.5087 0.805541 43.0573 0.563881Z" fill="#C21E1D"/>
<path opacity="0.3" d="M57.813 31.0136C61.1995 53.9714 64.3442 77.1709 69.9078 99.6454C72.8106 111.245 76.1971 122.362 80.3093 133.236C81.035 135.411 82.0026 137.586 82.9702 140.003V139.519L82.4864 130.578L81.7607 119.22L81.5188 113.662V111.487C81.5188 109.553 81.5188 107.862 81.5188 105.929C81.5188 103.754 81.2769 101.579 81.2769 99.6454C81.2769 98.1954 81.035 96.5038 81.035 95.0538C80.7931 93.1205 80.7931 91.4289 80.5512 89.7373C80.5512 89.0123 80.3093 88.0456 80.3093 87.3207C80.3093 86.354 80.0674 85.3874 80.0674 84.4207C80.0674 83.4541 79.8255 82.7291 79.8255 81.7624C79.8255 80.7958 79.5837 80.0708 79.5837 79.1042V78.8625C69.9078 64.3628 65.5537 46.7216 57.813 31.0136Z" fill="#456F96"/>
<path opacity="0.3" d="M37.2531 93.3622C34.8341 82.0041 30.2381 71.1294 27.3353 59.7713C24.4326 48.4132 23.9488 35.8468 29.7543 25.697C28.3029 39.4717 33.6246 52.7631 37.0112 66.2961C40.8815 82.2458 41.8491 99.1621 39.6721 115.353C39.1883 108.104 38.7045 100.612 37.2531 93.3622Z" fill="#456F96"/>
</svg>
