<svg width="45" height="66" viewBox="0 0 45 66" fill="none" xmlns="http://www.w3.org/2000/svg">
<path d="M30.1214 46.323L36.8945 45.3563L37.8621 51.8812L30.6052 51.6396L30.1214 46.323Z" fill="#EBB677"/>
<path d="M10.2861 52.123L9.07658 30.8568C18.2687 30.6151 30.3635 29.8902 32.5406 29.4068C32.5406 29.4068 33.5082 44.8731 34.4758 51.398C38.588 68.3143 18.5106 70.7309 10.2861 52.123Z" fill="#FFAE80"/>
<path d="M6.41648 34.7239C4.23941 30.8573 3.99751 28.924 3.02992 24.5741C0.610958 4.03291 12.7058 4.99954 20.4465 3.79123C29.3967 2.82459 38.8306 7.6578 41.2496 21.1908C41.0077 22.6408 40.5239 23.8491 40.5239 23.8491L44.6362 31.0989C45.3618 32.3073 44.878 33.7572 43.4267 34.2405L41.4915 34.9655C41.7334 36.4155 42.701 42.2153 42.701 42.2153C43.1848 45.5986 42.4591 51.3985 37.6212 51.6401C35.686 51.3985 31.09 48.2569 28.671 35.9322C25.5263 36.1738 8.10976 37.6238 6.41648 34.7239Z" fill="#FFAE80"/>
<path d="M10.0457 43.665C34.4773 46.3233 28.1879 35.2068 28.4298 32.7902C28.4298 32.0652 32.3002 32.0652 32.3002 31.3403C32.0583 18.7739 26.9785 11.0407 37.1381 11.0407C40.7666 9.83241 41.2504 -2.49231 18.0283 1.61594C7.86861 3.54923 0.611726 10.3157 0.369829 20.7072C-0.113964 30.8569 5.69156 42.215 10.0457 43.665Z" fill="black"/>
<path d="M23.1072 31.099C23.591 34.2406 26.2519 37.6238 27.9452 37.3822C29.6384 37.1405 29.1547 34.4822 28.6709 31.099C28.429 28.924 27.9452 26.024 26.2519 25.5407C24.5586 25.5407 22.3816 26.5074 23.1072 31.099Z" fill="#FFAE80"/>
</svg>
