<svg width="89" height="129" viewBox="0 0 89 129" fill="none" xmlns="http://www.w3.org/2000/svg">
<path d="M74.7417 13.4087L75.9511 12.2004L78.1282 10.7504L83.6918 10.2671C84.4175 10.2671 85.1431 9.78375 85.1431 9.05878L87.0783 8.8171C88.0459 8.8171 88.7716 7.85046 88.5297 6.88382C88.5297 6.64216 88.2878 6.40053 88.2878 6.15887C88.7716 5.67555 88.7716 4.95056 88.5297 4.22558C88.0459 3.01729 86.8364 2.29231 85.8688 2.53397L78.1282 4.7089C77.8863 4.7089 77.8863 4.7089 77.8863 4.7089C77.8863 4.7089 77.8863 4.7089 77.6444 4.7089C77.6444 4.7089 77.6444 4.7089 77.4025 4.7089C77.4025 4.7089 77.4025 4.70891 77.1606 4.95057L71.597 10.0254C70.8713 10.7504 70.8713 11.9587 71.597 12.9253C72.5646 13.8919 74.016 14.1336 74.7417 13.4087Z" fill="#FFAE80"/>
<path d="M68.2119 32.5002L71.5985 29.1169C72.3242 28.392 73.0499 27.4253 73.5337 26.217L74.7431 23.3171C74.985 23.0754 74.985 22.5921 75.2269 22.3504L80.0649 17.5172C80.7906 16.7922 80.7906 15.5839 79.823 14.6173C78.8554 13.8923 77.6459 13.6506 76.9202 14.3756L73.7755 17.7589L74.985 13.1673L79.0973 7.6091L85.6285 4.70918C86.5961 4.22586 86.838 3.01754 86.3542 2.05089C85.6285 1.08425 84.419 0.600928 83.4514 0.842589L75.7107 4.4675C75.7107 4.4675 71.5985 8.33409 70.389 9.5424C70.1471 9.78406 69.9052 10.2674 69.6633 10.509C68.4538 12.2007 65.551 16.7922 64.3415 21.3838L61.6807 26.942L68.2119 32.5002Z" fill="#FFAE80"/>
<path d="M2.66723 105.396C5.3281 101.046 8.95654 98.146 12.8269 94.2794C13.0688 94.0377 13.5526 93.5544 13.7945 93.3128C19.1162 87.7546 30.4853 76.8798 30.4853 76.8798C30.4853 76.8798 53.4655 38.214 62.4157 21.781L72.8173 39.9056C65.8023 54.6469 54.4331 82.6796 49.8371 88.7212C41.3707 99.8376 31.4529 110.712 22.2609 122.07C19.6 125.212 15.2459 127.87 11.1336 128.595C9.92413 128.837 8.95654 128.837 7.98895 128.595C4.3605 127.87 1.94155 124.97 0.973963 121.104C-0.719314 116.029 -0.235529 110.229 2.66723 105.396Z" fill="#EA4A49"/>
</svg>
