<svg width="84" height="125" viewBox="0 0 84 125" fill="none" xmlns="http://www.w3.org/2000/svg">
<path d="M82.6249 108.946C83.3506 110.154 83.1087 112.329 83.1087 113.779C82.6249 117.887 81.6573 120.062 80.206 123.445C78.5127 127.312 69.8044 122.479 69.5625 121.754C69.3206 121.029 69.5625 120.062 70.2882 119.579C71.9815 118.37 74.4004 120.545 75.8518 119.095C76.3356 118.612 76.3356 117.887 76.5775 117.162C76.8194 115.47 76.3356 113.296 74.8842 112.571C73.9166 112.087 72.4653 112.329 71.2558 112.329C68.1111 112.571 63.757 109.671 62.5475 106.771C61.338 103.871 63.757 101.212 66.1759 99.2792C67.1435 98.3126 68.5949 97.8292 70.0463 98.0709C70.772 98.3126 81.6573 107.496 82.6249 108.946Z" fill="#FFAE80"/>
<path d="M2.79799 3.82319C2.0723 4.78984 1.83043 5.75648 1.34664 6.72312C0.37905 10.5897 0.620932 15.6646 2.31421 19.2895C2.31421 19.2895 2.31421 19.2895 2.31421 19.5312C3.76559 23.1561 5.45885 26.5394 6.91023 30.1643C7.87782 32.3392 8.84543 34.5142 9.81302 36.9308C11.2644 40.0724 12.4739 43.4557 13.9253 46.5973C15.8604 50.9472 17.7956 55.0554 19.7308 59.1637C21.9078 63.5136 32.0675 75.1133 41.7434 86.4714C42.4691 87.1964 43.1948 88.163 43.6785 88.888C48.2746 94.2046 55.2896 104.113 58.4342 107.979L74.6413 97.8295C63.9978 82.6048 39.0825 47.3223 39.0825 47.3223C39.0825 47.3223 34.2446 32.0976 31.8256 25.0894C31.5837 24.606 31.5837 24.1228 31.3418 23.6394C30.1323 20.0145 29.1647 16.6313 27.7134 13.4897C27.2296 12.2813 26.5039 11.073 25.7782 9.86473C25.7782 9.86473 25.7782 9.62304 25.5363 9.38138C25.0525 8.89806 24.8106 8.17308 24.3268 7.68975C24.3268 7.68975 24.3268 7.44812 24.0849 7.44812C21.1821 4.06486 17.0699 1.88987 12.7158 0.923226C8.60353 0.198242 4.97506 0.923256 2.79799 3.82319Z" fill="#EA4A49"/>
</svg>
